<?xml version="1.0" encoding="utf-8"?>
<!-- Generator: Adobe Illustrator 16.0.3, SVG Export Plug-In . SVG Version: 6.00 Build 0)  -->
<!DOCTYPE svg PUBLIC "-//W3C//DTD SVG 1.1//EN" "http://www.w3.org/Graphics/SVG/1.1/DTD/svg11.dtd">
<svg version="1.1" id="Ebene_1" xmlns="http://www.w3.org/2000/svg" xmlns:xlink="http://www.w3.org/1999/xlink" x="0px" y="0px"
	 width="700px" height="547px" viewBox="-159.999 -124.996 700 547" enable-background="new -159.999 -124.996 700 547"
	 xml:space="preserve">
<g id="Hintergrund">
</g>
<g id="Hilfslinien">
</g>
<g>
	<g>
		<g>
			<defs>
				<rect id="SVGID_1_" x="-132.034" y="-90.233" width="644.071" height="448.672"/>
			</defs>
			<clipPath id="SVGID_2_">
				<use xlink:href="#SVGID_1_"  overflow="visible"/>
			</clipPath>
			<g id="Vordergrund" clip-path="url(#SVGID_2_)">
				<polyline fill="none" stroke="#000000" stroke-width="0.2835" stroke-miterlimit="3.8637" points="690.061,-178.705 
					703.829,-186.604 708.215,-187.078 				"/>
				
					<line fill="none" stroke="#000000" stroke-width="0.2835" stroke-miterlimit="3.8637" x1="699.469" y1="-198.701" x2="703.176" y2="-196.317"/>
				
					<line fill="none" stroke="#000000" stroke-width="0.2835" stroke-miterlimit="3.8637" x1="713.061" y1="-189.336" x2="708.251" y2="-192.957"/>
				<g>
					<polygon fill="#CCCCCC" stroke="#000000" stroke-width="0.5669" stroke-miterlimit="3.8637" points="727.215,-294.572 
						1230.688,-3.848 1230.688,172.862 1214.571,182.197 711.097,-108.644 711.097,-285.178 					"/>
					<polygon fill="#CCCCCC" stroke="#000000" stroke-width="0.2835" stroke-miterlimit="3.8637" points="727.215,-294.572 
						1230.688,-3.848 1214.571,5.57 1214.571,182.197 1214.571,5.57 711.097,-285.178 					"/>
				</g>
				<g>
					<polygon fill="#CCCCCC" stroke="#000000" stroke-width="0.5669" stroke-miterlimit="3.8637" points="726.748,-250.848 
						743.55,-241.049 743.55,-110.479 231.545,185.167 214.774,175.526 214.753,44.748 					"/>
					<polygon fill="#CCCCCC" stroke="#000000" stroke-width="0.2835" stroke-miterlimit="3.8637" points="726.748,-250.848 
						743.55,-241.049 231.545,54.551 231.545,185.167 231.545,54.551 214.753,44.748 					"/>
				</g>
				<g>
					<polygon fill="#FFFFFF" stroke="#000000" stroke-width="0.5669" stroke-miterlimit="3.8637" points="743.509,-216.715 
						1179.552,35.079 1179.552,141.302 1163.441,150.636 727.39,-101.273 727.39,-207.323 					"/>
					<polygon fill="#FFFFFF" stroke="#000000" stroke-width="0.2835" stroke-miterlimit="3.8637" points="743.509,-216.715 
						1179.552,35.079 1163.441,44.493 1163.441,150.636 1163.441,44.493 727.39,-207.323 					"/>
				</g>
				<polygon fill="#CCCCCC" stroke="#000000" stroke-width="0.2835" stroke-miterlimit="3.8637" points="727.39,-207.323 
					1163.441,44.493 683.714,321.203 247.674,69.406 				"/>
				<g>
					<polygon fill="#CCCCCC" stroke="#000000" stroke-width="0.5669" stroke-miterlimit="3.8637" points="247.674,69.406 
						683.714,321.203 683.714,427.425 667.599,436.759 231.554,184.846 231.554,78.799 					"/>
					<polygon fill="#CCCCCC" stroke="#000000" stroke-width="0.2835" stroke-miterlimit="3.8637" points="247.674,69.406 
						683.714,321.203 667.599,330.616 667.599,436.759 667.599,330.616 231.554,78.799 					"/>
				</g>
				<g>
					<g>
						<defs>
							<path id="SVGID_3_" d="M755.865-196.489c0-1.431,2.208-2.586,4.936-2.586c2.729,0,4.943,1.157,4.943,2.586
								c0,1.433-2.214,2.594-4.943,2.594C758.073-193.893,755.865-195.056,755.865-196.489z"/>
						</defs>
						<clipPath id="SVGID_4_">
							<use xlink:href="#SVGID_3_"  overflow="visible"/>
						</clipPath>
						<path clip-path="url(#SVGID_4_)" fill="#FFFFFF" stroke="#000000" stroke-width="0.567" stroke-miterlimit="3.864" d="
							M755.865-194.245c0-1.431,2.208-2.588,4.936-2.588c2.729,0,4.943,1.157,4.943,2.588c0,1.433-2.214,2.594-4.943,2.594
							C758.073-191.649,755.865-192.812,755.865-194.245z"/>
					</g>
					<g>
						<g>
							<defs>
								<path id="SVGID_5_" d="M800.942-178.092c0-1.437,2.209-2.592,4.935-2.592c2.732,0,4.941,1.155,4.941,2.592
									c0,1.426-2.209,2.583-4.941,2.583C803.151-175.51,800.942-176.667,800.942-178.092z"/>
							</defs>
							<clipPath id="SVGID_6_">
								<use xlink:href="#SVGID_5_"  overflow="visible"/>
							</clipPath>
							<path clip-path="url(#SVGID_6_)" fill="#FFFFFF" stroke="#000000" stroke-width="0.567" stroke-miterlimit="3.864" d="
								M800.942-175.854c0-1.432,2.209-2.587,4.935-2.587c2.732,0,4.941,1.156,4.941,2.587c0,1.431-2.209,2.592-4.941,2.592
								C803.151-173.261,800.942-174.423,800.942-175.854z"/>
						</g>
						<g>
							<polygon fill="#CCCCCC" stroke="#000000" stroke-width="0.2835" stroke-miterlimit="3.8637" stroke-dasharray="1,1" points="
								304.592,77.138 649.048,276.056 649.048,301.265 632.931,310.6 288.475,111.569 288.475,86.533 							"/>
							<polygon fill="#CCCCCC" stroke="#000000" stroke-width="0.2835" stroke-miterlimit="3.8637" stroke-dasharray="1,1" points="
								304.592,77.138 649.048,276.056 632.931,285.469 632.931,310.6 632.931,285.469 288.475,86.533 							"/>
						</g>
						<path stroke="#000000" stroke-width="0.2835" stroke-miterlimit="3.8637" d="M654.011,341.856
							c3.056,5.3,3.056,11.023,0.005,12.791c-3.062,1.764-8.019-1.1-11.074-6.398c-3.055-5.297-3.055-11.023,0-12.791
							C645.998,333.693,650.953,336.56,654.011,341.856z"/>
						<path stroke="#000000" stroke-width="0.2835" stroke-miterlimit="3.8637" d="M253.604,110.683
							c3.055,5.293,3.055,11.02,0,12.783c-3.057,1.765-8.015-1.099-11.075-6.392c-3.056-5.3-3.056-11.03,0-12.791
							C245.586,102.52,250.541,105.379,253.604,110.683z"/>
						
							<line fill="none" stroke="#000000" stroke-width="0.2835" stroke-miterlimit="3.8637" stroke-dasharray="1,1" x1="247.429" y1="112.411" x2="247.429" y2="236.004"/>
						
							<line fill="none" stroke="#000000" stroke-width="0.2835" stroke-miterlimit="3.8637" stroke-dasharray="1,1" x1="231.405" y1="103.165" x2="231.405" y2="226.753"/>
						<g>
							<polyline points="266.243,239.478 262.037,247.075 247.259,228.955 270.452,231.887 266.243,239.478 							"/>
							
								<line fill="none" stroke="#000000" stroke-width="0.2835" stroke-miterlimit="3.8637" stroke-dasharray="1,1" x1="260.146" y1="236.526" x2="308.364" y2="263.496"/>
						</g>
						<g>
							<polyline points="212.49,209.024 216.832,201.5 231.29,219.879 208.146,216.544 212.49,209.024 							"/>
							
								<line fill="none" stroke="#000000" stroke-width="0.2835" stroke-miterlimit="3.8637" stroke-dasharray="1,1" x1="191.379" y1="196.824" x2="217.658" y2="211.999"/>
						</g>
						<polygon fill="none" points="271.074,240.289 308.407,262.318 308.407,312.098 271.074,290.072 						"/>
						<text transform="matrix(0.8613 0.5082 0 1 283.5769 245.6978)" font-family="'Arial'" font-size="24">7</text>
						
							<line fill="none" stroke="#000000" stroke-width="0.2835" stroke-miterlimit="3.8637" stroke-dasharray="1,1" x1="837.369" y1="-265.272" x2="837.369" y2="-185.533"/>
						
							<line fill="none" stroke="#000000" stroke-width="0.2835" stroke-miterlimit="3.8637" stroke-dasharray="1,1" x1="743.588" y1="-319.419" x2="743.588" y2="-217.056"/>
						<g>
							<polyline points="855.94,-238.682 851.726,-231.086 836.947,-249.206 860.145,-246.276 855.94,-238.682 							"/>
							
								<line fill="none" stroke="#000000" stroke-width="0.2835" stroke-miterlimit="3.8637" stroke-dasharray="1,1" x1="854.674" y1="-239.382" x2="910.199" y2="-208.109"/>
						</g>
						<g>
							<polyline points="725.759,-314.117 729.965,-321.715 744.745,-303.593 721.545,-306.524 725.759,-314.117 							"/>
							
								<line fill="none" stroke="#000000" stroke-width="0.2835" stroke-miterlimit="3.8637" stroke-dasharray="1,1" x1="703.565" y1="-326.528" x2="727.022" y2="-313.42"/>
						</g>
						
							<line fill="none" stroke="#000000" stroke-width="0.2835" stroke-miterlimit="3.8637" stroke-dasharray="1,1" x1="163.363" y1="39.808" x2="247.798" y2="88.482"/>
						
							<line fill="none" stroke="#000000" stroke-width="0.2835" stroke-miterlimit="3.8637" stroke-dasharray="1,1" x1="163.251" y1="66.254" x2="246.683" y2="114.622"/>
						<g>
							<polyline points="171.064,92.188 162.379,92.188 171.064,70.471 179.749,92.188 171.064,92.188 							"/>
							
								<line fill="none" stroke="#000000" stroke-width="0.2835" stroke-miterlimit="3.8637" stroke-dasharray="1,1" x1="171.064" y1="85.984" x2="171.064" y2="108.188"/>
						</g>
						<g>
							<polyline points="170.706,22.743 179.391,22.587 171.086,44.449 162.021,22.893 170.706,22.743 							"/>
							
								<line fill="none" stroke="#000000" stroke-width="0.2835" stroke-miterlimit="3.8637" stroke-dasharray="1,1" x1="170.501" y1="-13.959" x2="171.064" y2="29.021"/>
						</g>
						<polygon fill="none" points="145.874,-24.698 195.655,4.042 195.655,53.824 145.874,25.083 						"/>
						
							<text transform="matrix(0.866 0.5 0 1 145.8757 3.3809)" font-family="'Arial'" font-size="24" letter-spacing="-1">1</text>
						<text transform="matrix(0.866 0.5 0 1 156.9744 9.792)" font-family="'Arial'" font-size="24">1</text>
						
							<line fill="none" stroke="#000000" stroke-width="0.2835" stroke-miterlimit="3.8637" stroke-dasharray="1,1" x1="305.733" y1="34.276" x2="305.733" y2="77.893"/>
						
							<line fill="none" stroke="#000000" stroke-width="0.2835" stroke-miterlimit="3.8637" stroke-dasharray="1,1" x1="247.474" y1="0.635" x2="247.474" y2="68.896"/>
						<g>
							<polyline points="324.61,60.807 320.401,68.401 305.62,50.276 328.82,53.209 324.61,60.807 							"/>
							
								<line fill="none" stroke="#000000" stroke-width="0.2835" stroke-miterlimit="3.8637" stroke-dasharray="1,1" x1="321.89" y1="59.438" x2="399.876" y2="102.84"/>
						</g>
						<g>
							<polyline points="229.081,5.748 233.552,-1.702 247.687,16.928 224.606,13.189 229.081,5.748 							"/>
							
								<line fill="none" stroke="#000000" stroke-width="0.2835" stroke-miterlimit="3.8637" stroke-dasharray="1,1" x1="207.444" y1="-6.475" x2="231.26" y2="7.741"/>
						</g>
						<polygon fill="none" points="334.677,32.652 433.235,91.183 433.235,140.964 334.677,82.435 						"/>
						<text transform="matrix(0.8613 0.5082 0 1 334.6785 60.7324)" font-family="'Arial'" font-size="24">125</text>
						<polygon fill="none" points="865.728,-281.747 941.557,-237.004 941.557,-187.223 865.728,-231.963 						"/>
						
							<text transform="matrix(0.8613 0.5082 0 1 865.7312 -242.7588)" font-family="'Arial'" font-size="40.8475">55</text>
						
							<line fill="none" stroke="#000000" stroke-width="0.2835" stroke-miterlimit="3.8637" stroke-dasharray="1,1" x1="171.064" y1="44.435" x2="171.064" y2="70.764"/>
						
							<line fill="none" stroke="#000000" stroke-width="0.2835" stroke-miterlimit="3.8637" stroke-dasharray="1,1" x1="231.513" y1="219.997" x2="246.473" y2="228.631"/>
						
							<line fill="none" stroke="#000000" stroke-width="0.2835" stroke-miterlimit="3.8637" stroke-dasharray="1,1" x1="248.426" y1="17.19" x2="306.128" y2="50.498"/>
						
							<line fill="none" stroke="#000000" stroke-width="0.2835" stroke-miterlimit="3.8637" stroke-dasharray="1,1" x1="743.984" y1="-303.586" x2="836.902" y2="-249.939"/>
						<g>
							<polygon fill="#CCCCCC" stroke="#000000" stroke-width="0.2835" stroke-miterlimit="3.8637" stroke-dasharray="1,1" points="
								837.454,-187.605 1085.606,-44.291 1085.606,-19.075 1069.495,-9.74 821.34,-153.171 821.34,-178.213 							"/>
							<polygon fill="#CCCCCC" stroke="#000000" stroke-width="0.2835" stroke-miterlimit="3.8637" stroke-dasharray="1,1" points="
								837.454,-187.605 1085.606,-44.291 1069.495,-34.874 1069.495,-9.74 1069.495,-34.874 821.34,-178.213 							"/>
						</g>
						<path fill="#FFFFFF" stroke="#000000" stroke-width="0.2835" stroke-miterlimit="3.8637" stroke-dasharray="1,1" d="
							M113.223,204.852l-49.011,28.294l-11.249-19.482l49.009-28.297c3.057-1.765,8.413,0.789,11.469,6.082
							c3.062,5.296,3.062,11.026,0.003,12.79L113.223,204.852z"/>
						<path fill="#FFFFFF" stroke="#000000" stroke-width="0.2835" stroke-miterlimit="3.8637" stroke-dasharray="1,1" d="
							M64.586,219.672c3.057,5.3,3.057,11.03,0,12.794c-3.055,1.765-8.013-1.103-11.067-6.401c-3.062-5.297-3.062-11.02,0-12.784
							C56.573,211.516,61.531,214.376,64.586,219.672z"/>
						<g>
							<path fill="none" stroke="#000000" stroke-width="0.2835" stroke-miterlimit="3.8637" d="M245.04,117.947
								c0,0,4.516-2.175,3.356-8.432"/>
							<path fill="none" stroke="#000000" stroke-width="0.2835" stroke-miterlimit="3.8637" d="M172.093,170.718
								c0.792,0.117,4.706-1.854,4.768-5.496"/>
							<path fill="#FFFFFF" stroke="#000000" stroke-width="0.2835" stroke-miterlimit="3.8637" d="M212.811,142.613
								c-1.521,2.61-4.329,6.253-8.592,8.857c-3.141,1.814-7.04,3.055-11.878,2.674c-8.648-0.489-17.292-1.705-23.927-2.2
								c1.914-4.429,5.818-8.412,9.144-10.903C185.2,136.623,193.255,141.354,212.811,142.613z"/>
							<path fill="#FFFFFF" stroke="#000000" stroke-width="0.2835" stroke-miterlimit="3.8637" d="M236.947,128.684
								c-1.521,2.608-4.438,6.309-8.7,8.914c-3.032,1.757-6.933,2.99-11.883,2.674c-8.54-0.548-17.287-1.706-23.818-2.264
								c1.809-4.364,5.822-8.413,9.034-10.845C205.908,124.666,221.207,127.664,236.947,128.684z"/>
							<path fill="#FFFFFF" stroke="#000000" stroke-width="0.2835" stroke-miterlimit="3.8637" d="M172.093,170.718
								c0,0-4.169-4.229,4.75-5.774C177.248,168.896,172.885,170.837,172.093,170.718z"/>
							<path fill="#FFFFFF" stroke="#000000" stroke-width="0.2835" stroke-miterlimit="3.8637" d="M212.806,143.752
								c-1.521,2.606-26.234,18.462-30.502,21.068c-3.031,1.751,17.811-10.17,10.923-10.49c-15.756-0.728-30.693-3.923-35.023-1.427
								c-0.603,0.207-1.316,0.473-2.074,0.91l-4.328,2.501l11.374,19.696l8.98-5.185c0,0-6.135-6.128,11.039-6.372l-0.827,0.479
								L212.806,143.752z"/>
							<path fill="none" stroke="#000000" stroke-width="0.2835" stroke-miterlimit="3.8637" d="M212.582,142.461"/>
							<path fill="#FFFFFF" stroke="#000000" stroke-width="0.2835" stroke-miterlimit="3.8637" d="M225.677,138.649
								c-4.53,2.908-8.397,4.701-13.963,4.314c-15.736-1.019-31.065-3.572-35.393-1.068c0,0,3.93-4.438,16.254-4.335
								C193.245,137.463,221.874,141.569,225.677,138.649z"/>
							<path fill="#FFFFFF" stroke="#000000" stroke-width="0.2835" stroke-miterlimit="3.8637" d="M244.76,117.96
								c-12.778-1.134-22.182-2.92-25.862-0.794c-2.224,1.139-5.564,3.357-8.402,6.441c-1.792,1.892,34.988,3.607,36.934,2.481
								c1.95-1.127,4.061-11.718,4.061-11.718l-2.953-4.364C248.537,110.011,245.719,117.126,244.76,117.96z"/>
							<path fill="#FFFFFF" stroke="#000000" stroke-width="0.2835" stroke-miterlimit="3.8637" d="M248.93,124.938
								c-4.526,2.903-7.301,4.353-12.865,3.963c-15.737-1.017-31.062-3.568-35.392-1.064c0,0,3.929-4.438,16.254-4.339
								C217.595,123.401,245.13,127.857,248.93,124.938z"/>
							<path fill="#FFFFFF" stroke="#000000" stroke-width="0.2835" stroke-miterlimit="3.8637" d="M245.04,117.947
								c0,0,4.516-2.175,3.356-8.432l-10.82-2.991c-3.166,2.262-6.998,5.627-9.04,9.838
								C232.866,116.606,238.787,117.375,245.04,117.947z"/>
							
								<ellipse transform="matrix(-0.4999 -0.8661 0.8661 -0.4999 92.3995 385.4107)" fill="#FFFFFF" stroke="#000000" stroke-width="0.2835" stroke-miterlimit="3.8637" cx="157.477" cy="166.027" rx="11.074" ry="6.394"/>
							<path fill="#FFFFFF" stroke="#000000" stroke-width="0.2835" stroke-miterlimit="3.8637" d="M152.018,157.681
								c2.751-1.59,7.213,0.987,9.967,5.757c2.753,4.766,3.001,9.362,0.255,10.947l-9.206,5.316l-9.495-16.453l9.2-5.311
								L152.018,157.681z"/>
							<path fill="#FFFFFF" stroke="#000000" stroke-width="0.2835" stroke-miterlimit="3.8637" d="M153.971,181.325
								c-11.997,5.902-34.968,19.021-49.004,28.297l-11.249-19.486l49.009-28.293c3.057-1.765,8.413,0.782,11.468,6.082
								c3.056,5.296,3.056,11.02,0.005,12.783L153.971,181.325z"/>
							
								<ellipse transform="matrix(-0.4999 -0.8661 0.8661 -0.4999 -22.9514 385.4539)" fill="#FFFFFF" stroke="#000000" stroke-width="0.2835" stroke-miterlimit="3.8637" cx="99.806" cy="199.353" rx="11.076" ry="6.394"/>
						</g>
						<g>
							<polyline points="157.573,204.021 150.053,208.366 146.717,185.217 165.093,199.679 157.573,204.021 							"/>
							<polyline fill="none" stroke="#000000" stroke-width="0.2835" stroke-miterlimit="3.8637" stroke-dasharray="1,1" points="
								154.559,198.729 188.307,257.18 234.758,286.392 							"/>
						</g>
						<g>
							<polyline points="125.137,147.162 132.661,142.819 135.996,165.965 117.618,151.505 125.137,147.162 							"/>
							
								<line fill="none" stroke="#000000" stroke-width="0.2835" stroke-miterlimit="3.8637" stroke-dasharray="1,1" x1="111.001" y1="124.004" x2="128.611" y2="153.792"/>
						</g>
						<polygon fill="none" points="196.514,264.685 251.384,296.365 251.384,346.15 196.514,314.467 						"/>
						<text transform="matrix(0.866 0.5 0 1 199.2664 260.0142)" font-family="'Arial'" font-size="24">Ø6</text>
						
							<line fill="none" stroke="#000000" stroke-width="0.2835" stroke-miterlimit="3.8637" stroke-dasharray="1,1" x1="-17.387" y1="175.928" x2="51.753" y2="215.848"/>
						
							<line fill="none" stroke="#000000" stroke-width="0.2835" stroke-miterlimit="3.8637" stroke-dasharray="1,1" x1="24.095" y1="151.294" x2="93.233" y2="191.214"/>
						<polygon fill="none" points="56.315,108.347 116.323,73.432 116.323,123.215 56.315,158.129 						"/>
						
							<text transform="matrix(0.8352 -0.5499 0.0552 0.9985 57.0227 140.5122)" font-family="'Arial'" font-size="24">1</text>
						
							<text transform="matrix(0.8352 -0.5499 0.0552 0.9985 68.8821 132.7046)" font-family="'Arial'" font-size="24">0</text>
						<g>
							<polyline points="-25.715,192.389 -29.925,184.796 -6.723,181.866 -21.502,199.989 -25.715,192.389 							"/>
							
								<line fill="none" stroke="#000000" stroke-width="0.2835" stroke-miterlimit="3.8637" stroke-dasharray="1,1" x1="-19.57" y1="189.625" x2="-38.475" y2="200.197"/>
						</g>
						<g>
							<polyline points="53.539,145.893 58.27,153.177 35.33,157.717 48.808,138.611 53.539,145.893 							"/>
							
								<line fill="none" stroke="#000000" stroke-width="0.2835" stroke-miterlimit="3.8637" stroke-dasharray="1,1" x1="104.249" y1="113.688" x2="48.701" y2="149.872"/>
						</g>
						
							<line fill="none" stroke="#000000" stroke-width="0.2835" stroke-miterlimit="3.8637" stroke-dasharray="1,1" x1="35.33" y1="157.717" x2="-7.015" y2="182.038"/>
						<g>
							<polygon fill="#CCCCCC" stroke="#000000" stroke-width="0.5669" stroke-miterlimit="3.8637" points="1179.57,10.588 
								1196.376,20.39 1196.376,150.96 684.372,446.601 667.605,436.958 667.581,306.189 							"/>
							<polygon fill="#CCCCCC" stroke="#000000" stroke-width="0.2835" stroke-miterlimit="3.8637" points="1179.57,10.588 
								1196.376,20.39 684.372,315.985 684.372,446.601 684.372,315.985 667.581,306.189 							"/>
						</g>
						<path fill="#FFFFFF" stroke="#000000" stroke-width="0.567" stroke-miterlimit="3.864" d="M666.073-136.274
							c0,4.453,18.599,14.257,18.599,14.257l0.169,1.256l34.143,19.146c0,0,3.59,2.47,9.443-1.006l106.405-61.086v-18.096
							c0-2.02-1.48-3.53-2.595-4.357l-54.945-30.721c0,0-4.033-3.591-4.931,2.239l-1.865,13.045l-21.681-10.686l-6.285-3.025
							l-7.18-3.61l-4.633-4.647l-2.187,1.303l-0.05,6.367v0.683l-8.518,4.583v-7.894l6.723-4.033l-5.376-4.369l-11.759,6.921
							l-0.098,15.414l-3.932,2.199v-5.374l-8.065-5.714l-6.387,13.103v8.727l-11.762,7.069l-12.88,14.072l6.473,4.428l-3.361,15.462
							l-3.465,2.473v12.372v-0.497H666.073z"/>
						
							<line fill="none" stroke="#000000" stroke-width="0.283" stroke-miterlimit="3.864" x1="832.177" y1="-180.356" x2="830.44" y2="-169.9"/>
						
							<line fill="none" stroke="#000000" stroke-width="0.283" stroke-miterlimit="3.864" x1="830.44" y1="-169.9" x2="819.45" y2="-166.645"/>
						
							<line fill="none" stroke="#000000" stroke-width="0.567" stroke-miterlimit="3.864" x1="798.821" y1="-194.906" x2="799.271" y2="-183.245"/>
						<path fill="none" stroke="#000000" stroke-width="0.283" stroke-miterlimit="3.864" d="M684.895-133.232
							c0,0-18.824-9.966-18.824-14.424"/>
						
							<line fill="none" stroke="#000000" stroke-width="0.567" stroke-miterlimit="3.864" x1="669.648" y1="-150.499" x2="688.71" y2="-140.181"/>
						
							<line fill="none" stroke="#000000" stroke-width="0.567" stroke-miterlimit="3.864" x1="710.685" y1="-181.449" x2="710.685" y2="-175.395"/>
						<path fill="none" stroke="#000000" stroke-width="0.567" stroke-miterlimit="3.864" d="M704.406-174.049l7.176-1.572
							c0,0,4.486-1.346,3.139-2.69c-1.348-1.343-2.466-2.241-2.466-2.241s-1.795-0.898,3.14-2.693
							c4.936-1.79,19.846-5.495,19.846-5.495"/>
						
							<line fill="none" stroke="#000000" stroke-width="0.567" stroke-miterlimit="3.864" x1="770.562" y1="-201.633" x2="770.562" y2="-197.819"/>
						
							<line fill="none" stroke="#000000" stroke-width="0.283" stroke-miterlimit="3.864" x1="776.169" y1="-215.309" x2="830.662" y2="-185.263"/>
						
							<line fill="none" stroke="#000000" stroke-width="0.567" stroke-miterlimit="3.864" x1="712.028" y1="-181.339" x2="712.028" y2="-175.843"/>
						<polyline fill="none" stroke="#000000" stroke-width="0.567" stroke-miterlimit="3.864" points="688.834,-175.863 
							704.51,-184.585 710.685,-181.449 						"/>
						
							<line fill="none" stroke="#000000" stroke-width="0.283" stroke-miterlimit="3.864" x1="712.813" y1="-158.801" x2="712.813" y2="-158.127"/>
						<path d="M755.865-196.489c0-1.431,2.208-2.586,4.936-2.586c2.729,0,4.943,1.157,4.943,2.586c0,1.433-2.214,2.594-4.943,2.594
							C758.073-193.893,755.865-195.056,755.865-196.489z"/>
						<path fill="none" stroke="#000000" stroke-width="0.51" stroke-miterlimit="3.864" d="M755.865-196.489
							c0-1.431,2.208-2.586,4.936-2.586c2.729,0,4.943,1.157,4.943,2.586c0,1.433-2.214,2.594-4.943,2.594
							C758.073-193.893,755.865-195.056,755.865-196.489z"/>
						<path fill="none" stroke="#000000" stroke-width="0.283" stroke-miterlimit="3.864" d="M776.169-215.309
							c0,0-1.716-1.226-2.608,0.488"/>
						<path fill="none" stroke="#000000" stroke-width="0.283" stroke-miterlimit="3.864" d="M830.662-185.263
							c0,0,2.854,0.42,1.513,4.907"/>
						<path fill="none" stroke="#000000" stroke-width="0.283" stroke-miterlimit="3.864" d="M684.829-121.793"/>
						<polyline fill="none" stroke="#000000" stroke-width="0.567" stroke-miterlimit="3.864" points="705.633,-174.498 
							680.422,-175.863 678.938,-177.844 674.977,-174.876 672.987,-166.006 						"/>
						<path d="M784.187-208.188c0,0-3.53,2.293-3.754,4.087c-0.225,1.794-0.899,6.282-0.899,6.282s-0.006,3.979,3.364,3.979
							l3.309-1.565l1.109-7.679C785.921-207.407,784.187-208.188,784.187-208.188z"/>
						<polyline fill="none" stroke="#000000" stroke-width="0.567" stroke-miterlimit="3.864" points="679.525,-185.023 
							684.236,-182.555 692.109,-189.233 704.068,-196.702 707.767,-194.349 707.767,-192.314 						"/>
						<polyline fill="none" stroke="#000000" stroke-width="0.2835" stroke-miterlimit="3.864" points="707.869,-193.898 
							695.885,-186.573 688.38,-179.548 691.741,-177.869 						"/>
						<path fill="none" stroke="#000000" stroke-width="0.567" stroke-miterlimit="3.864" d="M735.242-188.738
							c4.951-3.954,9.514-7.912,9.514-7.912s1.984-0.988,5.944,0.497c3.959,1.48,17.321,8.906,17.321,8.906"/>
						<path fill="none" stroke="#000000" stroke-width="0.283" stroke-miterlimit="3.864" d="M779.758-192.383
							c-2.86-0.729-2.91-6.563-2.91-6.563l1.065-6.612c0,0,1.097-1.611,2.627-2.542"/>
						<path fill="none" stroke="#000000" stroke-width="0.567" stroke-miterlimit="3.864" d="M780.54-208.101
							c2.013-1.23,4.772-1.296,6.776,5.017l-1.109,7.679"/>
						<path fill="none" stroke="#000000" stroke-width="0.567" stroke-miterlimit="3.864" d="M821.429-186.231
							c1.729-1.321,4.705-1.72,6.966,4.922l-1.654,10.896"/>
						<path fill="none" stroke="#000000" stroke-width="0.567" stroke-miterlimit="3.864" d="M765.744-196.489
							c0,1.433-2.214,2.594-4.943,2.594c-2.728,0-4.936-1.163-4.936-2.594"/>
						<path fill="#FFFFFF" d="M800.942-178.092c0-1.437,2.209-2.592,4.935-2.592c2.732,0,4.941,1.155,4.941,2.592
							c0,1.426-2.209,2.583-4.941,2.583C803.151-175.51,800.942-176.667,800.942-178.092z"/>
						<path fill="none" stroke="#000000" stroke-width="0.51" stroke-miterlimit="3.864" d="M800.942-178.092
							c0-1.437,2.209-2.592,4.935-2.592c2.732,0,4.941,1.155,4.941,2.592c0,1.426-2.209,2.583-4.941,2.583
							C803.151-175.51,800.942-176.667,800.942-178.092z"/>
						<path fill="none" stroke="#000000" stroke-width="0.567" stroke-miterlimit="3.864" d="M810.816-178.092
							c0,1.426-2.209,2.583-4.941,2.583c-2.726,0-4.935-1.158-4.935-2.583"/>
						<path fill="#999999" stroke="#000000" stroke-width="0.567" stroke-miterlimit="3.864" d="M818.979-154.648l0.01-15.77
							c-1.096,0.587-3.011,1.082-3.011,1.082c-14.804-2.468-12.226-10.99-12.226-10.99l-11.983-8.402l6.438-3.966
							c3.528-7.479-9.404-3.959-9.404-3.959l-63.347,29.2l-38.104,28.214c0,0-2.523,1.436-2.523,4.901v12.545l0.01,1.032
							l34.143,19.146c0,0,3.591,2.47,9.443-1.006L818.979-154.648z"/>
						<path fill="none" stroke="#000000" stroke-width="0.283" stroke-miterlimit="3.864" d="M803.754-180.326l-13.962,6.941
							c0,0-21.275,11.377-1.975,11.871"/>
						<path fill="none" stroke="#000000" stroke-width="0.567" stroke-miterlimit="3.864" d="M788.31-161.515
							c0,0,10.393,0,30.681-8.904"/>
						
							<line fill="none" stroke="#000000" stroke-width="0.283" stroke-miterlimit="3.864" x1="724.466" y1="-112.652" x2="724.466" y2="-102.26"/>
						
							<line fill="none" stroke="#000000" stroke-width="0.283" stroke-miterlimit="3.864" x1="720.013" y1="-114.498" x2="720.013" y2="-104.106"/>
						<path fill="none" stroke="#000000" stroke-width="0.283" stroke-miterlimit="3.864" d="M686.915-135.922l30.493,18.612
							c0,0,6.508,3.814,13.012-0.224l88.569-52.885"/>
						<path d="M825.341-186.385c0,0-3.534,2.304-3.758,4.093c-0.225,1.796-1.122,7.4-1.122,7.4s-0.224,1.854,2.917,3.759
							c1.93,1.171,3.361,0.333,3.361,0.333l1.731-10.476C827.077-185.598,825.341-186.385,825.341-186.385z"/>
						<path fill="none" stroke="#000000" stroke-width="0.283" stroke-miterlimit="3.864" d="M821.429-186.231
							c-0.993,0.759-1.643,1.756-1.643,1.756l-1.454,10.091c0,1.008,1.904,7.511,8.408,3.969"/>
						
							<line fill="none" stroke="#000000" stroke-width="0.5669" stroke-miterlimit="3.8637" x1="728.481" y1="-215.215" x2="735.35" y2="-218.845"/>
						<polyline fill="none" stroke="#000000" stroke-width="0.5669" stroke-miterlimit="3.8637" points="719.962,-214.173 
							724.671,-217.193 724.671,-220.218 721.309,-218.528 						"/>
						<polygon fill="#FFFFFF" stroke="#000000" stroke-width="0.5669" stroke-miterlimit="3.8637" points="709.551,-220.008 
							709.886,-217.185 714.927,-214.493 726.686,-220.356 726.686,-222.71 721.309,-226.928 						"/>
						<polyline fill="none" stroke="#000000" stroke-width="0.2835" stroke-miterlimit="3.8637" points="693.421,-190.608 
							693.421,-200.042 699.011,-211.286 						"/>
						
							<line fill="none" stroke="#000000" stroke-width="0.5669" stroke-miterlimit="3.8637" x1="719.962" y1="-210.632" x2="709.452" y2="-204.594"/>
						<polyline fill="none" stroke="#000000" stroke-width="0.5669" stroke-miterlimit="3.8637" points="705.52,-202.397 
							699.469,-198.701 699.469,-193.969 						"/>
						
							<line fill="none" stroke="#000000" stroke-width="0.2835" stroke-miterlimit="3.8637" x1="711.595" y1="-206.43" x2="711.595" y2="-215.5"/>
						<polyline fill="none" stroke="#000000" stroke-width="0.2835" stroke-miterlimit="3.8637" points="709.551,-220.008 
							714.846,-216.865 726.305,-222.71 						"/>
						<polyline fill="none" stroke="#000000" stroke-width="0.5669" stroke-miterlimit="3.864" points="708.877,-182.91 
							715.933,-187.944 753.906,-209.791 						"/>
						
							<line fill="none" stroke="#000000" stroke-width="0.2835" stroke-miterlimit="3.864" x1="692.109" y1="-189.59" x2="695.885" y2="-187.174"/>
						<polyline fill="none" stroke="#000000" stroke-width="0.2835" stroke-miterlimit="3.864" points="720.807,-201.019 
							716.269,-203.743 704.684,-196.992 						"/>
						<polyline fill="none" stroke="#000000" stroke-width="0.5669" stroke-miterlimit="3.864" points="708.251,-192.957 
							721.309,-200.715 720.807,-201.019 						"/>
						<path fill="none" stroke="#000000" stroke-width="0.2835" stroke-miterlimit="3.864" d="M730.385-196.347l-5.714-3.695
							c0,0-2.016-1.687,1.007-3.701c3.026-2.013,2.692-1.347,2.692-1.347s2.015-1.676,4.367,0.339
							c2.351,2.015,5.191,3.471,5.191,3.471"/>
						<path fill="none" stroke="#000000" stroke-width="0.5669" stroke-miterlimit="3.864" d="M725.678-200.382
							c3.026-2.015,2.69-1.346,2.69-1.346s2.017-1.674,4.369,0.339c2.351,2.014,2.351,1.681,2.351,1.681"/>
						<polyline fill="none" stroke="#000000" stroke-width="0.5669" stroke-miterlimit="3.864" points="718.287,-199.034 
							716.269,-200.382 706.859,-194.666 						"/>
						
							<line fill="none" stroke="#000000" stroke-width="0.2835" stroke-miterlimit="3.864" x1="707.869" y1="-192.314" x2="707.869" y2="-187.078"/>
						
							<line fill="none" stroke="#000000" stroke-width="0.5669" stroke-miterlimit="3.864" x1="713.061" y1="-189.336" x2="705.978" y2="-184.137"/>
					</g>
				</g>
			</g>
		</g>
	</g>
</g>
</svg>
