<?xml version="1.0" encoding="utf-8"?>
<!-- Generator: Adobe Illustrator 16.0.3, SVG Export Plug-In . SVG Version: 6.00 Build 0)  -->
<!DOCTYPE svg PUBLIC "-//W3C//DTD SVG 1.1//EN" "http://www.w3.org/Graphics/SVG/1.1/DTD/svg11.dtd">
<svg version="1.1" id="Ebene_1" xmlns="http://www.w3.org/2000/svg" xmlns:xlink="http://www.w3.org/1999/xlink" x="0px" y="0px"
	 width="699.999px" height="546.999px" viewBox="-160 -124.996 699.999 546.999"
	 enable-background="new -160 -124.996 699.999 546.999" xml:space="preserve">
<g>
	<g>
		<path fill="#FFFFFF" d="M62.151,263.3H31.577V-71.646h30.574c-0.031,29.779-0.02,254.772-0.009,301.875H48.778l-0.098,9.081
			h13.465"/>
	</g>
	<g>
		<polyline fill="none" stroke="#000000" stroke-width="0.575" stroke-miterlimit="3.864" points="61.321,69.328 61.321,-71.139 
			165.248,-71.139 		"/>
	</g>
	<g>
		<path fill="#CCCCCC" d="M60.535,58.219C44.046,47.003,37.474,24.308,32.5-4.552l0.224-65.978h27.4
			C60.106-56.565,60.281-3.161,60.535,58.219"/>
	</g>
	<g>
		<g>
			
				<rect x="237.243" y="257.665" fill="#FFFFFF" stroke="#000000" stroke-width="0.2835" stroke-miterlimit="3.8637" width="14.071" height="13.574"/>
			
				<rect x="222.176" y="275.896" fill="#FFFFFF" stroke="#000000" stroke-width="0.2835" stroke-miterlimit="3.8637" width="9.518" height="13.772"/>
			
				<rect x="235.525" y="278.881" fill="#FFFFFF" stroke="#000000" stroke-width="0.2835" stroke-miterlimit="3.8637" width="20.846" height="8.381"/>
			
				<rect x="238.625" y="276.696" fill="#FFFFFF" stroke="#000000" stroke-width="0.2835" stroke-miterlimit="3.8637" width="13.983" height="13.581"/>
			<g>
				<path d="M274.373,277.836l0.032-0.429v-19.604l0.051-0.297l0.252-0.508l0.384-0.395l0.631-0.625l0.485-0.748l0.312-0.838
					l0.102-0.854v-0.026v-0.042v-0.06v-0.075v-0.105v-0.105v-0.12v-0.146v-0.138v-0.148v-0.158v-0.157v-0.162v-0.146v-0.143v-0.126
					v-0.119v-0.094v-0.075v-0.049v-0.037v-0.012l-0.102-0.861l-0.312-0.836l-0.485-0.754l-0.631-0.611l-0.384-0.396l-0.252-0.512
					l-0.051-0.299v-2.051l-0.032-0.5l-0.111-0.5l-0.157-0.459l-0.212-0.451l-0.283-0.421l-0.334-0.38l-0.376-0.323l-0.413-0.282
					l-0.444-0.222l-0.478-0.15l-0.484-0.102l-0.504-0.038h-9.059h-0.631l-0.644,0.004h-0.654h-0.669h-0.681h-0.683h-0.699h-0.705
					h-0.703h-0.719h-0.718h-0.718h-0.737h-0.729h-0.732h-0.739h-0.737h-11.482h-1.02h-1.061h-1.006h-0.9h-0.736h-0.518h-0.309
					h-0.086l-0.015,0.008h-0.083l-0.272,0.004h-0.442h-0.659h-0.845h-1.013h-1.171h-1.283h-1.361h-1.4h-1.404h-1.346h-3.384h-0.698
					h-0.717h-0.676h-0.557h-0.413h-0.237h-0.057v-0.012h-0.105h-0.332h-0.547h-0.688h-0.56h-0.902l-0.824,0.083l-1.143,0.35
					l-0.809,0.274l-0.768,0.459l-0.631,0.643l-0.459,0.76l-0.278,0.809l-0.083,0.805v0.854v11.968v24.478v1.59v0.467v0.541v0.587
					v0.447l0.09,0.846l0.29,0.809l0.455,0.719l0.605,0.612l0.716,0.444l0.814,0.281l0.846,0.1h6.064l1.178-0.279v-2.253h-6.076
					l-0.492-0.071l-0.44-0.229l-0.354-0.355l-0.218-0.438l-0.079-0.493v-21.33v-2.489v-17.172l0.079-0.484l0.218-0.438l0.312-0.307
					h0.654l0,0l0,0l0,0l0,0l0,0l0,0l0,0l0.012-0.004l0.051-0.013l0.01-0.008l0.012-0.004l0.098-0.024l0.015-0.007h0.015l0.109-0.04
					h0.008h0.008l0.052-0.024l0.057-0.011l0.007-0.012l0.098-0.022l0,0v-0.004l0,0h0.008l0,0l0,0l0.008-0.006l0,0h0.008v-0.003l0,0
					l0,0l0,0l0,0l0.041-0.012l0,0l0,0l0,0l0,0h0.01l0,0l0,0l0,0l0,0l0,0l0.01-0.004l0,0l0,0h0.007l0,0h0.015l0,0l0,0h0.008
					l0.016-0.006v-0.003l0.011-0.004h0.019l0,0l0.023-0.004l0.041-0.008l0.041-0.004l0.039-0.004l0.025-0.005h0.055h0.086h0.13h0.14
					h0.168h0.187h0.205h0.222h0.244h0.245h0.263h0.27h0.279h0.264h0.28h0.067v0.005v0.004l0,0l0,0l0,0v0.004l0,0v0.004l0,0l0,0l0,0
					l0,0l0,0v0.012v0.051l0,0l0,0l0,0l0,0v0.024l0,0l0,0v0.011l0,0l0,0v0.006v0.008v0.09l0,0l0,0l0,0l0,0l0,0l0,0l0,0v0.006l0,0
					h12.096h37.744h4.502l0.308,0.03l0.288,0.094l0.279,0.143l0.233,0.193l0.201,0.245l0.138,0.28l0.094,0.283l0.031,0.316v1.002
					l-0.015,0.007h0.015l0,0h0.377h0.118h0.007l0,0l0,0l0,0h0.399v0.004v0.146v0.214v0.229v0.039v0.008v0.067v0.083v0.105v0.1v0.145
					v0.024v0.098v0.183v0.148v0.203v0.169v0.237v0.177v0.265v0.185v0.284v0.052v0.13v0.193v0.123v0.098v0.222v0.338v0.341v0.359
					l0.007,0.35v0.348v0.352v0.327v0.315v0.288l0.023,24.667l-8.535,0.104v3.416l8.742-0.047c0,0,1.328-0.1,1.871-1.485
					C274.459,278.531,274.373,277.836,274.373,277.836z"/>
				<path d="M219.925,266.332v-0.671v-0.071l0,0l0,0v-0.022l-0.007-0.036v-0.122v-0.632v-0.421v-0.144l0,0l-0.008-1.244v-0.019
					l0.015-0.061v-0.011v-0.004l0,0v-0.026l0,0v-0.143l0,0l0,0v-0.125v-0.003v-0.813l-0.007-0.963v-0.496l0,0v-0.236l0,0v-0.046
					v-0.21v-0.042l0,0v-0.308v-0.02l0,0v-0.304v-0.072l0,0v-0.037l0,0v-0.169l0,0v-0.199v-0.292v-0.135v-0.012v-0.398v-0.04v-0.035
					v-0.241v-0.173v-0.441v-0.036v-0.035v-0.051l0.517-0.833l0.793-0.78l0.923-0.589l1.038-0.362l1.064-0.288l0.683-0.071
					l9.007-0.039h1.937h1.342h1.286h1.187l1.041-0.004h2.561h13.693l1.025,0.114l1.059,0.35l0.97,0.604l0.823,0.826l0.596,0.974
					l0.352,1.041l0.047,0.44l0.051,16.303v0.805v0.658v0.65v0.522v0.313v0.105h0.014v11.027l-0.115,1.02l-0.354,1.049l-0.597,0.974
					l-0.819,0.823l-0.976,0.602l-1.053,0.343l-0.974,0.214l-1.089,0.124h-14.664v-3.335l1.042-0.236h14.392l0.342-0.219l0.352-0.537
					l0.118-0.583v-29.761l-0.118-0.582l-0.352-0.53l-0.532-0.354l-0.575-0.113h-2.136h-0.39h-0.153h-0.048v-0.007h-0.082h-0.327
					h-0.522h-0.643h-0.67h-0.222h-0.765h-0.68h-0.5h-14.107h-0.51h-0.669h-0.765h-0.219h-0.661h-0.652h-0.521h-0.32h-0.102v0.004
					h-0.122h-0.348h-0.532h-0.994h-3.854l-0.285,0.199l-0.344,0.526l-0.122,0.582v11.073v0.064v8.509v6.038v0.026l0,0v8.787
					l-0.124,1.034l-0.398,0.97l-0.646,0.835l-0.835,0.64l-0.966,0.398l-1,0.226l-1.042,0.139h-6.682h-1.087h-1.105h-0.891h-0.737
					h-0.462h-0.275v-3.343l0.963-0.226h0.869h0.512h0.736h0.921h1.038h1.105h5.602l0.123-0.188l0.051-0.264v-7.967l0,0l0,0h0.008
					l0,0h0.013l0,0l0,0h0.007h0.016l0,0h0.018h0.145h0.071h0.106h0.076h0.007h0.008l0,0h0.055l0.009-0.004v-0.004h0.008l0,0l0,0l0,0
					l0,0h0.008v-0.158v-0.433l0,0v-0.315v-0.06v-0.249l0,0v-0.041v-0.015v-0.504v-0.038v-0.086l0,0v-0.199L219.925,266.332z"/>
				<path d="M231.231,288.33v-10.882l0.11-1.015l0.295-1.05l0.521-1.011l0.738-0.896l0.892-0.732l1.013-0.523l1.042-0.301
					l0.904-0.222l0.991-0.098h14.639v0.113v0.334v0.579v0.782v0.937v1.004v0.985v2.047l0,0l-16.226,0.053v8.934v0.943v0.955
					l0.007,0.896v0.75v0.543v0.316v0.104h0.008v0.086v0.26v0.423v0.549l0.01,2.449v0.28l0.098,0.662l0.316,0.654l0.531,0.522
					l0.643,0.311l0.664,0.106h19.488h0.776h0.687h0.549h0.342h0.104l0,0h0.047h0.13h0.233h0.301h0.37h0.435h0.477h0.512h0.526h0.524
					h0.523h0.48h0.44h0.372h0.305h0.222h0.128h0.049l0,0h0.113h0.35h0.539h0.693h0.779h39.346c9.244,0,10.947-6.595,10.947-6.595
					v-22.913v-2.134l-0.091-0.395l-0.255-0.313l-0.053-0.043l-0.044-0.04l-0.488-0.462l-0.414-0.522l-0.48-0.847l-0.313-0.972
					l-0.094-1.01v-56.257l0.007-0.364l0.04-0.359l0.06-0.362l0.105-0.369l0.124-0.36l0.154-0.347l0.173-0.346l0.211-0.323
					l0.181-0.244l0.203-0.237l0.293-0.312l0.333-0.28l0.265-0.319l0.083-0.392v-1.211v-1.084l0.008-0.931v-0.77v-1.508l0.943-0.291
					h4.05l0.007,1.508v0.772v0.938l0.008,1.085v1.199l-0.083,0.951l-0.281,0.919l0.24,1.369l0.124,1.384v60.923v2.141v0.597v0.582
					v0.589v0.579v0.575v0.565v0.559v0.542v0.524v0.521v0.433v0.433v0.425v16.063l-0.03,0.71l-0.082,0.839l-0.115,0.564l-0.069,0.352
					l-0.132,0.592l-0.161,0.433l-0.119,0.338l-0.272,0.673l-0.315,0.609l-0.17,0.313l-0.248,0.429l-0.323,0.462l-0.21,0.286
					l-0.38,0.485l-0.316,0.319l-0.236,0.259l-0.258,0.241l-0.295,0.282l-0.229,0.177l-0.28,0.226l-0.291,0.212l-0.44,0.299
					l-0.451,0.274l-0.305,0.17l-0.305,0.165l-0.281,0.128l-0.376,0.158l-0.327,0.131l-0.327,0.119l-0.41,0.129l-0.271,0.079
					l-0.343,0.075l-0.353,0.079l-0.02,0.004l-0.019,0.008l-0.015,0.004h-0.02l-0.029,0.003L314,302.342l-1.555,0.114h-0.987
					l-0.203,0.14l-0.248,0.36l-0.361,0.624l-0.567,0.512l-0.685,0.323l-0.729,0.109l0,0l-0.15,0.06l-0.714,0.109h-0.02h-0.041
					h-0.063h-0.117h-0.12h-0.143h-0.173h-0.177h-0.174h-0.184h-0.195h-0.177h-0.158h-0.154h-0.098h-0.105h-0.075h-0.037h-0.022
					l-0.715-0.109l-0.688-0.31l-0.556-0.518l-0.373-0.624l-0.236-0.361l-0.376-0.255l-0.357-0.061h-15.556h-0.744h-0.947h-0.846
					h-0.646h-0.39h-0.122v-0.015h-0.057h-0.319H282.1h-0.752h-0.891h-0.959h-0.936h-20.256h-0.943h-0.943h-0.896h-0.748h-0.557
					h-0.315h-0.098l-0.053,0.015h-0.605l-0.072-0.012h-0.017h-0.009l0,0l0,0l-0.012-0.003h-0.008l-0.484-0.046l-0.485,0.046v0.003
					h-0.028l0,0l-0.016,0.008h-0.02l-0.04,0.004l-0.007,0.004h-0.098h-0.999h-1.163h-1.268h-1.276h-5.269l-0.035-0.004l0,0
					l-0.143-0.019l-0.17-0.016l-0.248-0.033l-0.047,0.007l-0.248,0.03l-0.158,0.016l-0.118,0.015l0,0l-0.021,0.004h-3.166
					l-1.145-0.105l-1.176-0.348l-1.131-0.581l-1.004-0.827l-0.82-1.004l-0.579-1.124l-0.34-1.172l-0.118-1.15v-4.194v-3.605h0.011
					v-0.019H231.231z"/>
				<path d="M200.691,287.432L200.691,287.432v0.022l0,0l0,0l0,0h-9.231l-0.159-0.03l-0.15-0.113l-0.107-0.15l-0.021-0.165
					l-0.008-0.041v-0.099v-0.188v-0.274v-0.354v-0.425v-0.481v-0.522v-0.545v-0.523v-0.507v-0.476v-0.349v-0.319v-0.282v-0.195
					v-0.124v-0.039l0.029-0.162l0.107-0.158l0.15-0.098l0,0l0.159-0.035h9.231h2.815l0.012,0.073v0.233l0.009,2.729v0.459v0.701
					v0.923v1.128v1.278l0.008,1.386v1.415v1.397v8.14l0.079,0.422l0.248,0.38l0.374,0.248l0.424,0.082h28.244l0.061,0.323
					l0.201,0.313l0.311,0.199l0.336,0.061h7.949l0.797-0.25h0.025h0.018l0.883-0.091l0.869,0.091l0.827,0.25h7.84l0.795-0.25h0.017
					h0.04l0.868-0.091l0.871,0.091l0.832,0.25h0.549h0.666h0.652h0.516h0.322l0.107,0.004v1.911h-0.021h-0.041v0.014l0,0h-0.102
					h-0.323h-0.527H257.6h-0.658h-52.338l-0.82-0.096l-0.842-0.276l-0.771-0.476l-0.661-0.66l-0.478-0.78l-0.278-0.833l-0.095-0.825
					v-8.143v-1.404v-1.411l0.035-2.284h-0.008l0,0l0,0l0,0l0,0h-0.008l0,0h-0.012l0,0l0,0l0,0l0,0l0,0l0,0l0,0h-0.008"/>
				
					<path fill="none" stroke="#000000" stroke-width="0.5669" stroke-linecap="round" stroke-linejoin="round" stroke-miterlimit="10" d="
					M206.344,245.323H191.68c0,0-1.808-0.132-1.808,2.365v28.92c0,0,0.196,1.988-1.534,1.988h-2.388c0,0-1.112,0-1.112,1.456v10.517
					c0,0-0.039,1.701,1.191,1.701h14.633"/>
			</g>
		</g>
	</g>
	<g>
		<polyline fill="#CCCCCC" points="17.272,369.816 1.076,369.816 -2.458,375.574 -7.985,363.688 -12.616,369.816 -26.229,369.816 
			-26.229,-106.996 17.272,-106.996 		"/>
	</g>
	<g>
		<polygon fill="none" stroke="#000000" stroke-width="0.575" stroke-miterlimit="3.864" points="17.272,369.816 1.076,369.816 
			-2.458,375.574 -7.985,363.688 -12.616,369.816 -26.229,369.816 -26.229,-106.996 17.272,-106.996 		"/>
	</g>
	<g>
		<path fill="#FFFFFF" stroke="#000000" stroke-width="0.5669" stroke-miterlimit="10" stroke-dasharray="0.9354" d="
			M134.176,181.765l0.4,123.652l-155.148-0.109l0.825-398.201h45.619c0,0-4.027,125.974,36.252,153.357
			c91.308,62.085,71.984,85.398,71.984,85.398l0.07,22.002l7.191,4.087l-14.377,5.723L134.176,181.765"/>
	</g>
	<g>
		<g>
			
				<rect x="90.258" y="257.665" fill="#FFFFFF" stroke="#000000" stroke-width="0.2835" stroke-miterlimit="3.8637" width="14.073" height="13.574"/>
			
				<rect x="109.88" y="275.896" fill="#FFFFFF" stroke="#000000" stroke-width="0.2835" stroke-miterlimit="3.8637" width="9.519" height="13.772"/>
			
				<rect x="85.201" y="278.881" fill="#FFFFFF" stroke="#000000" stroke-width="0.2835" stroke-miterlimit="3.8637" width="20.845" height="8.381"/>
			
				<rect x="88.967" y="276.696" fill="#FFFFFF" stroke="#000000" stroke-width="0.2835" stroke-miterlimit="3.8637" width="13.982" height="13.581"/>
			<g>
				<path d="M67.201,277.836l-0.03-0.429v-19.604l-0.051-0.297l-0.252-0.508l-0.385-0.395l-0.631-0.625l-0.485-0.748l-0.314-0.838
					l-0.101-0.854v-0.026v-0.042v-0.06v-0.075v-0.105v-0.105v-0.12v-0.146v-0.138v-0.148v-0.158v-0.157v-0.162v-0.146v-0.143v-0.126
					v-0.119v-0.094v-0.075v-0.049v-0.037v-0.012l0.101-0.861l0.314-0.836l0.485-0.754l0.631-0.611l0.385-0.396l0.252-0.512
					l0.051-0.299v-2.051l0.03-0.5l0.106-0.5l0.16-0.459l0.218-0.451l0.278-0.421l0.334-0.38l0.375-0.323l0.414-0.282l0.445-0.222
					l0.477-0.15l0.484-0.102l0.504-0.038h9.058h0.632l0.643,0.004h0.65h0.672h0.68h0.677h0.703h0.707h0.7h0.722h0.718h0.718h0.737
					h0.728h0.734h0.737h0.735h11.486h1.02h1.06h1.007h0.898h0.738h0.515h0.307h0.084l0.016,0.008h0.084l0.267,0.004h0.439h0.661
					h0.845h1.016h1.174h1.285h1.36h1.396h1.4h1.35h3.38h0.701h0.717h0.672h0.559h0.41h0.237h0.059v-0.012h0.114h0.333h0.546h0.693
					h0.559h0.898l0.823,0.083l1.143,0.35l0.807,0.274l0.766,0.459l0.634,0.643l0.466,0.76l0.271,0.809l0.085,0.805v0.854v11.968
					v24.478v1.59v0.467v0.541v0.587v0.447l-0.093,0.846l-0.291,0.809l-0.454,0.719l-0.608,0.612l-0.718,0.444l-0.811,0.281
					l-0.853,0.1h-6.067l-1.174-0.279v-2.253h6.075l0.493-0.071l0.439-0.229l0.354-0.355l0.222-0.438l0.077-0.493v-21.33v-2.489
					v-17.172l-0.077-0.484l-0.222-0.438l-0.314-0.307h-0.656l0,0l0,0l0,0l0,0l0,0l0,0l0,0l-0.007-0.004l-0.055-0.013l-0.007-0.008
					l-0.011-0.004l-0.092-0.024l-0.016-0.007h-0.015l-0.11-0.04h-0.007h-0.008l-0.054-0.024l-0.054-0.011l-0.007-0.012l-0.096-0.022
					l0,0v-0.004l0,0h-0.008l0,0l0,0l-0.007-0.006l0,0h-0.008v-0.003l0,0l0,0l0,0l0,0l-0.039-0.012l0,0l0,0l0,0l0,0h-0.007l0,0l0,0
					l0,0l0,0l0,0l-0.008-0.004l0,0l0,0h-0.008l0,0h-0.011l0,0l0,0h-0.007l-0.015-0.006v-0.003l-0.009-0.004h-0.019l0,0l-0.023-0.004
					l-0.039-0.008l-0.039-0.004l-0.039-0.004l-0.022-0.005h-0.058h-0.085h-0.13h-0.138h-0.172h-0.182h-0.209h-0.222h-0.244h-0.243
					h-0.264h-0.263h-0.279h-0.264h-0.275H126.6v0.005v0.004l0,0l0,0l0,0v0.004l0,0v0.004l0,0l0,0l0,0l0,0l0,0v0.012v0.051l0,0l0,0
					l0,0l0,0v0.024l0,0l0,0v0.011l0,0l0,0v0.006v0.008v0.09l0,0l0,0l0,0l0,0l0,0l0,0l0,0v0.006l0,0h-12.094H76.758h-4.501
					l-0.306,0.03l-0.291,0.094l-0.279,0.143l-0.237,0.193l-0.198,0.245l-0.141,0.28l-0.092,0.283l-0.031,0.316v1.002l0.016,0.007
					h-0.016l0,0h-0.375h-0.118h-0.007l0,0l0,0l0,0h-0.4v0.004v0.146v0.214v0.229v0.039v0.008v0.067v0.083v0.105v0.1v0.145v0.024
					v0.098v0.183v0.148v0.203v0.169v0.237v0.177v0.265v0.185v0.284v0.052v0.13v0.193v0.123v0.098v0.222v0.338v0.341v0.359
					l-0.008,0.35v0.348v0.352v0.327v0.315v0.288l-0.02,24.667l8.536,0.104v3.416l-8.744-0.047c0,0-1.33-0.1-1.873-1.485
					C67.113,278.531,67.201,277.836,67.201,277.836z"/>
				<path d="M121.655,283.393v0.199l0,0v0.087v0.034v0.507v0.016v0.041l0,0v0.248v0.061v0.315l0,0v0.433v0.158h0.007l0,0l0,0l0,0
					l0,0h0.008v0.004l0.008,0.004h0.054l0,0h0.007h0.008h0.076h0.104H122h0.146h0.016l0,0h0.015h0.008l0,0l0,0h0.008l0,0h0.007l0,0
					l0,0v7.967l0.054,0.264l0.121,0.188h5.603h1.108h1.04h0.915h0.738h0.508h0.869l0.966,0.226v3.343h-0.272h-0.465h-0.738h-0.891
					h-1.105h-1.089h-6.682l-1.04-0.139l-1.001-0.226l-0.964-0.4l-0.83-0.638l-0.647-0.835l-0.398-0.97l-0.129-1.034v-8.787l0,0
					v-0.026v-6.038v-8.509v-0.064v-11.077l-0.119-0.579l-0.341-0.526l-0.287-0.199h-3.854h-0.994h-0.531h-0.345h-0.121v-0.003
					h-0.098h-0.321h-0.516h-0.65h-0.665h-0.221h-0.768h-0.67h-0.505H92.756h-0.501h-0.674h-0.768h-0.225H89.92h-0.643h-0.52h-0.325
					h-0.081v0.007H88.3h-0.155h-0.393h-2.137l-0.574,0.113l-0.535,0.354l-0.349,0.53l-0.117,0.582v29.759l0.117,0.585l0.349,0.537
					l0.34,0.218h14.391l1.04,0.237v3.335H85.616l-1.094-0.124l-0.972-0.216l-1.051-0.341l-0.974-0.602l-0.823-0.825l-0.593-0.972
					l-0.351-1.049l-0.111-1.02v-11.027h0.007v-0.105v-0.313v-0.521v-0.652v-0.658v-0.809l0.054-16.299l0.05-0.44l0.351-1.041
					l0.593-0.975l0.823-0.825l0.974-0.602l1.051-0.352l1.032-0.114h13.691h2.564l1.04,0.004h1.19h1.286h1.341h1.935l9.004,0.039
					l0.685,0.071l1.063,0.288l1.039,0.362l0.926,0.589l0.792,0.78l0.516,0.833v0.051v0.035v0.036v0.441v0.173v0.241v0.035v0.04
					v0.398v0.011v0.134v0.293v0.199l0,0v0.17l0,0v0.037l0,0v0.071v0.305l0,0v0.02v0.308l0,0v0.042v0.21v0.045l0,0v0.237l0,0v0.496
					l-0.008,0.963v0.812v0.004v0.124l0,0l0,0v0.144l0,0v0.026l0,0v0.004v0.011l0.015,0.061v0.019l-0.007,1.244l0,0v0.14v0.425v0.632
					v0.122l-0.008,0.035v0.023l0,0l0,0v0.071v0.671L121.655,283.393z"/>
				<path d="M110.339,288.33v-10.882l-0.11-1.015l-0.294-1.05l-0.52-1.011l-0.737-0.896l-0.892-0.732l-1.015-0.523l-1.043-0.301
					l-0.899-0.222l-0.99-0.098H89.2v0.113v0.334v0.579v0.782v0.937v1.004v0.985v2.047l0,0l16.223,0.053v8.934v0.943v0.955
					l-0.007,0.896v0.75v0.543v0.316v0.104h-0.008v0.086v0.26v0.423v0.549l-0.007,2.449v0.28l-0.096,0.662l-0.317,0.654l-0.532,0.522
					l-0.643,0.311l-0.662,0.106H83.66h-0.775h-0.69h-0.546h-0.345h-0.1l0,0h-0.047h-0.134h-0.233h-0.298h-0.376h-0.43h-0.478h-0.513
					h-0.527H77.64h-0.52h-0.481H76.2h-0.376h-0.302h-0.226h-0.13h-0.05l0,0h-0.112h-0.345h-0.542h-0.693H72.64H33.298
					c-9.244,0-10.946-6.595-10.946-6.595v-22.913v-2.134l0.088-0.395l0.257-0.313l0.054-0.043l0.046-0.04l0.489-0.462l0.415-0.522
					l0.481-0.847l0.31-0.972l0.096-1.01v-56.257l-0.007-0.364l-0.042-0.359l-0.062-0.362l-0.104-0.369l-0.124-0.36l-0.155-0.347
					l-0.176-0.346l-0.21-0.323l-0.183-0.244l-0.2-0.237l-0.298-0.312l-0.329-0.28l-0.264-0.319l-0.081-0.392v-1.211v-1.084
					l-0.007-0.931v-0.77v-1.508l-0.946-0.291h-4.047l-0.009,1.508v0.772v0.938l-0.007,1.085v1.199l0.084,0.951l0.283,0.919
					l-0.241,1.369l-0.127,1.384v60.923v2.141v0.597v0.582v0.589v0.579v0.575v0.565v0.559v0.542v0.524v0.521v0.433v0.433v0.425
					v16.063l0.031,0.71l0.081,0.839l0.114,0.564l0.073,0.352l0.133,0.592l0.162,0.433l0.112,0.338l0.271,0.673l0.32,0.609
					l0.167,0.313l0.248,0.429l0.325,0.462l0.209,0.286l0.386,0.485l0.314,0.319l0.236,0.259l0.256,0.241l0.298,0.282l0.229,0.177
					l0.279,0.226l0.291,0.212l0.439,0.299l0.454,0.274l0.306,0.17l0.307,0.165l0.283,0.128l0.375,0.158l0.326,0.131l0.329,0.119
					l0.407,0.129l0.271,0.079l0.341,0.075l0.353,0.079l0.015,0.004l0.015,0.008l0.016,0.004h0.015l0.027,0.003l1.411,0.273
					l1.552,0.114h0.983l0.206,0.14l0.249,0.36l0.362,0.624l0.565,0.512l0.686,0.323l0.729,0.109l0,0l0.15,0.06l0.718,0.109h0.015
					h0.042h0.071H34h0.122h0.144h0.169h0.176h0.175h0.181h0.195h0.173h0.16h0.156h0.123h0.106h0.072h0.039h0.02l0.718-0.109
					l0.685-0.31l0.559-0.518l0.375-0.624l0.237-0.361l0.375-0.255l0.354-0.061H54.87h0.745h0.947h0.849h0.648h0.392h0.124v-0.015
					h0.058h0.318h0.539h0.753h0.891h0.958h0.938h20.254h0.946h0.943h0.895h0.749h0.554h0.32h0.097l0.054,0.015h0.608l0.072-0.012
					h0.007h0.008l0,0l0,0l0.012-0.003h0.007l0.483-0.046l0.485,0.046v0.003h0.027l0,0l0.015,0.008h0.015l0.035,0.004l0.008,0.004
					h0.1h0.997h1.159h1.268h1.276h5.27l0.034-0.004l0,0l0.145-0.019l0.166-0.016l0.248-0.033l0.051,0.007l0.249,0.03l0.16,0.016
					l0.117,0.015l0,0l0.015,0.004h3.165l1.144-0.105l1.174-0.348l1.132-0.581l1.009-0.827l0.819-1.004l0.577-1.124l0.336-1.172
					l0.117-1.15v-4.194v-3.605h-0.009V288.33L110.339,288.33z"/>
				<path d="M140.914,287.454h-0.007l0,0l0,0l0,0l0,0l0,0l0,0l0,0h-0.007l0,0h-0.008l0,0l0,0l0,0l0,0h-0.007l0.03,2.286v1.409v1.404
					v8.143l-0.092,0.819l-0.275,0.837l-0.481,0.778l-0.654,0.662l-0.775,0.474l-0.837,0.28l-0.823,0.09H84.643h-0.654h-0.643h-0.531
					h-0.321h-0.101l0,0v-0.011h-0.039h-0.019v-1.91l0.105-0.004h0.321h0.516h0.647h0.667h0.551l0.829-0.248l0.872-0.096l0.869,0.096
					h0.035h0.015l0.799,0.248h7.837l0.83-0.248l0.869-0.096l0.883,0.096h0.015h0.023l0.799,0.248h7.948l0.333-0.061l0.314-0.201
					l0.198-0.307l0.061-0.327h28.244l0.421-0.084l0.378-0.248l0.248-0.374l0.077-0.423v-8.141v-1.4v-1.418l0.008-1.38v-1.278v-1.128
					v-0.921v-0.703v-0.459l0.007-2.729v-0.233l0.011-0.079h2.814h9.231l0.16,0.041l0,0l0.149,0.095l0.106,0.161l0.031,0.162v0.041
					v0.12v0.205v0.28v0.323v0.346v0.474v0.51v0.524v0.54v0.521v0.481v0.425v0.357v0.278v0.18v0.105l-0.008,0.036l-0.023,0.167
					l-0.106,0.15l-0.149,0.109l-0.16,0.033h-9.23l0,0l0,0l0,0v-0.026l0,0"/>
				
					<path fill="none" stroke="#000000" stroke-width="0.5669" stroke-linecap="round" stroke-linejoin="round" stroke-miterlimit="10" d="
					M135.229,245.323h14.665c0,0,1.812-0.132,1.812,2.365v28.92c0,0-0.198,1.988,1.531,1.988h2.388c0,0,1.113,0,1.113,1.456v10.517
					c0,0,0.039,1.701-1.19,1.701h-14.635"/>
			</g>
		</g>
	</g>
	<g>
		
			<line fill="none" stroke="#000000" stroke-width="0.575" stroke-miterlimit="3.864" x1="16.698" y1="-92.091" x2="16.698" y2="299.304"/>
	</g>
	<g>
		
			<line fill="none" stroke="#000000" stroke-width="0.287" stroke-miterlimit="3.864" x1="197.408" y1="304.116" x2="80.249" y2="304.116"/>
	</g>
	<g>
		<polyline fill="#CCCCCC" points="324.824,369.816 341.022,369.816 344.557,375.574 350.084,363.688 354.713,369.816 
			368.329,369.816 368.329,-106.996 324.824,-106.996 		"/>
	</g>
	<g>
		<polygon fill="none" stroke="#000000" stroke-width="0.575" stroke-miterlimit="3.864" points="324.824,369.816 341.022,369.816 
			344.557,375.574 350.084,363.688 354.713,369.816 368.329,369.816 368.329,-106.996 324.824,-106.996 		"/>
	</g>
	<g>
		<path fill="#CCCCCC" d="M279.947,263.3c0,0,0.043-292.662,0-334.946h30.572V263.3"/>
	</g>
	<g>
		<path fill="none" stroke="#000000" stroke-width="0.575" stroke-miterlimit="3.864" d="M279.947,263.3
			c0,0,0.043-292.662,0-334.946h30.572V263.3H279.947z"/>
	</g>
	<g>
		<polyline points="139.424,278.992 144.033,263.048 148.719,278.992 		"/>
	</g>
	<g>
		
			<line fill="none" stroke="#000000" stroke-width="0.287" stroke-miterlimit="3.864" x1="144.033" y1="263.048" x2="144.033" y2="282.382"/>
	</g>
	<g>
		<polyline points="78.095,90.115 62.151,85.509 78.095,80.816 		"/>
	</g>
	<g>
		<polyline points="263.764,80.764 279.709,85.375 263.764,90.063 		"/>
	</g>
	<g>
		
			<line fill="none" stroke="#000000" stroke-width="0.287" stroke-miterlimit="3.864" x1="65.138" y1="85.439" x2="276.1" y2="85.439"/>
	</g>
	<g>
		<polyline points="326.462,141.516 310.52,136.904 326.462,132.221 		"/>
	</g>
	<g>
		
			<line fill="none" stroke="#000000" stroke-width="0.287" stroke-miterlimit="3.864" x1="339.748" y1="136.84" x2="312.497" y2="136.84"/>
	</g>
	<g>
		<g>
			<text transform="matrix(1.0001 0 0 1 203.9268 133.2178)" font-family="'Arial'" font-size="24">max 16</text>
		</g>
	</g>
	<g>
		
			<line fill="none" stroke="#000000" stroke-width="0.287" stroke-miterlimit="3.864" x1="279.709" y1="136.84" x2="312.505" y2="136.84"/>
	</g>
	<g>
		<polyline points="265.132,132.167 281.07,136.778 265.132,141.461 		"/>
	</g>
	<g>
		
			<line fill="none" stroke="#000000" stroke-width="0.287" stroke-miterlimit="3.864" x1="276.887" y1="136.84" x2="196.5" y2="136.84"/>
	</g>
	<g>
		<polyline fill="#CCCCCC" points="176.662,229.881 290.947,229.881 290.844,238.958 176.309,238.958 176.309,236.78 182,235.12 
			173.034,233.91 176.662,231.626 		"/>
	</g>
	<g>
		<polygon fill="none" stroke="#000000" stroke-width="0.575" stroke-miterlimit="3.864" points="176.662,229.881 290.947,229.881 
			290.844,238.958 176.309,238.958 176.309,236.78 182,235.12 173.034,233.91 176.662,231.626 		"/>
	</g>
	<g>
		
			<line fill="none" stroke="#000000" stroke-width="0.287" stroke-miterlimit="3.864" x1="144.035" y1="237.215" x2="144.035" y2="263.853"/>
	</g>
	<g>
		<g>
			<text transform="matrix(0 -0.9999 1 0 124.0894 224.541)" font-family="'Arial'" font-size="24">12-15</text>
		</g>
	</g>
	<g>
		<polyline fill="none" stroke="#000000" stroke-width="0.575" stroke-miterlimit="3.864" points="189.814,-71.139 279.986,-71.139 
			279.986,69.328 		"/>
	</g>
	<g>
		
			<line fill="none" stroke="#000000" stroke-width="0.575" stroke-miterlimit="3.864" stroke-dasharray="1.0145,1.0145" x1="168.868" y1="-71.139" x2="189.814" y2="-71.139"/>
	</g>
	<g>
		<polyline fill="#CCCCCC" points="162.964,239.308 133.521,239.308 133.632,230.225 163.313,230.225 163.313,232.407 
			157.624,234.071 166.59,235.282 162.964,237.566 		"/>
	</g>
	<g>
		
			<line fill="none" stroke="#000000" stroke-width="0.287" stroke-miterlimit="3.864" x1="182.423" y1="235.171" x2="182.423" y2="310.196"/>
	</g>
	<g>
		<polyline points="187.1,223.823 182.485,239.768 177.805,223.823 		"/>
	</g>
	<g>
		
			<line fill="none" stroke="#000000" stroke-width="0.287" stroke-miterlimit="3.864" x1="182.423" y1="235.171" x2="182.423" y2="198.073"/>
	</g>
	<g>
		<polygon fill="none" stroke="#000000" stroke-width="0.575" stroke-miterlimit="3.864" points="162.964,239.308 48.681,239.308 
			48.774,230.225 163.313,230.225 163.313,232.407 157.624,234.071 166.59,235.282 162.964,237.566 		"/>
	</g>
	<g>
		<polyline points="148.711,224.044 144.1,239.984 139.415,224.044 		"/>
	</g>
	<g>
		
			<line fill="none" stroke="#000000" stroke-width="0.287" stroke-miterlimit="3.864" x1="144.035" y1="235.39" x2="144.035" y2="135.385"/>
	</g>
	<g>
		<path fill="#FFFFFF" d="M18.807,212.438c2.109,0,5.879-4.286,5.879-4.286l0.653,0.004v13.728l-0.679,0.015
			c0,0-3.543-4.294-5.622-4.294H-0.551c-3.017,0.094-12.709-2.591-12.709-2.591s9.693-2.553,12.709-2.553"/>
	</g>
	<g>
		<path fill="none" stroke="#000000" stroke-width="0.287" stroke-miterlimit="3.864" d="M18.807,212.438
			c2.109,0,5.879-4.286,5.879-4.286l0.653,0.004v13.728l-0.679,0.015c0,0-3.543-4.294-5.622-4.294H-0.551
			c-3.017,0.094-12.709-2.591-12.709-2.591s9.693-2.553,12.709-2.553L18.807,212.438z"/>
	</g>
	<g>
		
			<line fill="none" stroke="#000000" stroke-width="0.287" stroke-miterlimit="3.864" x1="24.686" y1="208.148" x2="24.661" y2="221.896"/>
	</g>
	<g>
		
			<line fill="none" stroke="#000000" stroke-width="0.287" stroke-miterlimit="3.864" x1="19.307" y1="212.989" x2="19.307" y2="217.069"/>
	</g>
	<g>
		<path fill="#FFFFFF" d="M-7.537,217.409c0.34,0,0.52-0.264,0.631-0.793l-0.541-0.124c-0.395,0-0.89-0.53-0.89-1.188l-0.375,0.011
			c0-0.68-0.512-1.203-0.911-1.203l-0.505,0.004c0.116-0.526,0.29-0.913,0.611-0.913C-7.897,213.198-9.141,217.409-7.537,217.409"/>
	</g>
	<g>
		<path fill="none" stroke="#000000" stroke-width="0.287" stroke-miterlimit="3.864" d="M-7.537,217.409
			c0.34,0,0.52-0.264,0.631-0.793l-0.541-0.124c-0.395,0-0.89-0.53-0.89-1.188l-0.375,0.011c0-0.68-0.512-1.203-0.911-1.203
			l-0.505,0.004c0.116-0.526,0.29-0.913,0.611-0.913C-7.897,213.198-9.141,217.409-7.537,217.409z"/>
	</g>
	<g>
		<path fill="#FFFFFF" d="M-9.51,213.194h0.373c1.134,0,0.468,4.215,1.6,4.215H-7.91C-9.046,217.409-8.378,213.194-9.51,213.194"/>
	</g>
	<g>
		<path fill="none" stroke="#000000" stroke-width="0.287" stroke-miterlimit="3.864" d="M-9.51,213.194h0.373
			c1.134,0,0.468,4.215,1.6,4.215H-7.91C-9.046,217.409-8.378,213.194-9.51,213.194z"/>
	</g>
	<g>
		<path fill="#FFFFFF" d="M17.097,217.806c0,0-0.287-1.041-0.553-2.748c-0.25-1.638-0.614-2.613-1.071-2.613l-0.358,0.004
			c0.031-0.512,0.325-1.302,0.702-1.302c1.868,0,0.432,7.799,2.285,7.799c0.413,0,0.65-0.67,0.729-1.29l-0.348-0.011
			c-0.466,0-0.823-0.975-1.077-2.608c-0.264-1.712-0.553-2.754-0.553-2.754"/>
	</g>
	<g>
		<path fill="none" stroke="#000000" stroke-width="0.287" stroke-miterlimit="3.864" d="M17.097,217.806
			c0,0-0.287-1.041-0.553-2.748c-0.25-1.638-0.614-2.613-1.071-2.613l-0.358,0.004c0.031-0.512,0.325-1.302,0.702-1.302
			c1.868,0,0.432,7.799,2.285,7.799c0.413,0,0.65-0.67,0.729-1.29l-0.348-0.011c-0.466,0-0.823-0.975-1.077-2.608
			c-0.264-1.712-0.553-2.754-0.553-2.754L17.097,217.806z"/>
	</g>
	<g>
		<path fill="#FFFFFF" d="M15.84,211.136h0.437c1.311,0,0.535,7.81,1.844,7.81h-0.429C16.376,218.943,17.151,211.136,15.84,211.136"
			/>
	</g>
	<g>
		<path fill="none" stroke="#000000" stroke-width="0.287" stroke-miterlimit="3.864" d="M15.84,211.136h0.437
			c1.311,0,0.535,7.81,1.844,7.81h-0.429C16.376,218.943,17.151,211.136,15.84,211.136z"/>
	</g>
	<g>
		<path fill="#FFFFFF" d="M13.416,217.806c0,0-0.285-1.041-0.546-2.748c-0.25-1.638-0.617-2.613-1.076-2.613l-0.358,0.004
			c0.033-0.512,0.325-1.302,0.703-1.302c1.865,0,0.433,7.799,2.287,7.799c0.412,0,0.646-0.67,0.726-1.29l-0.349-0.011
			c-0.462,0-0.823-0.975-1.076-2.608c-0.262-1.712-0.553-2.754-0.553-2.754"/>
	</g>
	<g>
		<path fill="none" stroke="#000000" stroke-width="0.287" stroke-miterlimit="3.864" d="M13.416,217.806
			c0,0-0.285-1.041-0.546-2.748c-0.25-1.638-0.617-2.613-1.076-2.613l-0.358,0.004c0.033-0.512,0.325-1.302,0.703-1.302
			c1.865,0,0.433,7.799,2.287,7.799c0.412,0,0.646-0.67,0.726-1.29l-0.349-0.011c-0.462,0-0.823-0.975-1.076-2.608
			c-0.262-1.712-0.553-2.754-0.553-2.754L13.416,217.806z"/>
	</g>
	<g>
		<path fill="#FFFFFF" d="M12.161,211.136h0.434c1.311,0,0.537,7.81,1.848,7.81h-0.432
			C12.702,218.943,13.472,211.136,12.161,211.136"/>
	</g>
	<g>
		<path fill="none" stroke="#000000" stroke-width="0.287" stroke-miterlimit="3.864" d="M12.161,211.136h0.434
			c1.311,0,0.537,7.81,1.848,7.81h-0.432C12.702,218.943,13.472,211.136,12.161,211.136z"/>
	</g>
	<g>
		<path fill="#FFFFFF" d="M9.739,217.806c0,0-0.287-1.041-0.553-2.748c-0.25-1.638-0.614-2.613-1.076-2.613l-0.353,0.004
			c0.031-0.512,0.325-1.302,0.699-1.302c1.867,0,0.436,7.799,2.287,7.799c0.414,0,0.65-0.67,0.728-1.29l-0.345-0.011
			c-0.465,0-0.826-0.975-1.08-2.608c-0.26-1.712-0.548-2.754-0.548-2.754"/>
	</g>
	<g>
		<path fill="none" stroke="#000000" stroke-width="0.287" stroke-miterlimit="3.864" d="M9.739,217.806
			c0,0-0.287-1.041-0.553-2.748c-0.25-1.638-0.614-2.613-1.076-2.613l-0.353,0.004c0.031-0.512,0.325-1.302,0.699-1.302
			c1.867,0,0.436,7.799,2.287,7.799c0.414,0,0.65-0.67,0.728-1.29l-0.345-0.011c-0.465,0-0.826-0.975-1.08-2.608
			c-0.26-1.712-0.548-2.754-0.548-2.754L9.739,217.806z"/>
	</g>
	<g>
		<path fill="#FFFFFF" d="M8.48,211.136h0.433c1.315,0,0.54,7.81,1.846,7.81h-0.43C9.021,218.943,9.789,211.136,8.48,211.136"/>
	</g>
	<g>
		<path fill="none" stroke="#000000" stroke-width="0.287" stroke-miterlimit="3.864" d="M8.48,211.136h0.433
			c1.315,0,0.54,7.81,1.846,7.81h-0.43C9.021,218.943,9.789,211.136,8.48,211.136z"/>
	</g>
	<g>
		<path fill="#FFFFFF" d="M6.055,217.806c0,0-0.285-1.041-0.551-2.748c-0.25-1.638-0.616-2.613-1.073-2.613l-0.36,0.004
			c0.033-0.512,0.326-1.302,0.705-1.302c1.866,0,0.429,7.799,2.287,7.799c0.408,0,0.647-0.67,0.726-1.29l-0.349-0.011
			c-0.461,0-0.821-0.975-1.075-2.608c-0.262-1.712-0.553-2.754-0.553-2.754"/>
	</g>
	<g>
		<path fill="none" stroke="#000000" stroke-width="0.287" stroke-miterlimit="3.864" d="M6.055,217.806
			c0,0-0.285-1.041-0.551-2.748c-0.25-1.638-0.616-2.613-1.073-2.613l-0.36,0.004c0.033-0.512,0.326-1.302,0.705-1.302
			c1.866,0,0.429,7.799,2.287,7.799c0.408,0,0.647-0.67,0.726-1.29l-0.349-0.011c-0.461,0-0.821-0.975-1.075-2.608
			c-0.262-1.712-0.553-2.754-0.553-2.754L6.055,217.806z"/>
	</g>
	<g>
		<path fill="#FFFFFF" d="M4.795,211.136h0.437c1.312,0,0.538,7.81,1.846,7.81h-0.43C5.336,218.943,6.11,211.136,4.795,211.136"/>
	</g>
	<g>
		<path fill="none" stroke="#000000" stroke-width="0.287" stroke-miterlimit="3.864" d="M4.795,211.136h0.437
			c1.312,0,0.538,7.81,1.846,7.81h-0.43C5.336,218.943,6.11,211.136,4.795,211.136z"/>
	</g>
	<g>
		<path fill="#FFFFFF" d="M2.374,217.806c0,0-0.283-1.041-0.549-2.748c-0.25-1.638-0.614-2.613-1.075-2.613l-0.358,0.004
			c0.03-0.512,0.329-1.302,0.702-1.302c1.868,0,0.435,7.799,2.287,7.799c0.412,0,0.65-0.67,0.726-1.29l-0.348-0.011
			c-0.462,0-0.823-0.975-1.076-2.608c-0.264-1.712-0.553-2.754-0.553-2.754"/>
	</g>
	<g>
		<path fill="none" stroke="#000000" stroke-width="0.287" stroke-miterlimit="3.864" d="M2.374,217.806
			c0,0-0.283-1.041-0.549-2.748c-0.25-1.638-0.614-2.613-1.075-2.613l-0.358,0.004c0.03-0.512,0.329-1.302,0.702-1.302
			c1.868,0,0.435,7.799,2.287,7.799c0.412,0,0.65-0.67,0.726-1.29l-0.348-0.011c-0.462,0-0.823-0.975-1.076-2.608
			c-0.264-1.712-0.553-2.754-0.553-2.754L2.374,217.806z"/>
	</g>
	<g>
		<path fill="#FFFFFF" d="M1.121,211.136h0.433c1.311,0,0.535,7.81,1.844,7.81H2.971C1.657,218.943,2.427,211.136,1.121,211.136"/>
	</g>
	<g>
		<path fill="none" stroke="#000000" stroke-width="0.287" stroke-miterlimit="3.864" d="M1.121,211.136h0.433
			c1.311,0,0.535,7.81,1.844,7.81H2.971C1.657,218.943,2.427,211.136,1.121,211.136z"/>
	</g>
	<g>
		<path fill="#FFFFFF" d="M-1.295,217.773c0,0-0.281-0.978-0.547-2.586c-0.25-1.544-0.612-2.46-1.069-2.46l-0.352,0.006
			c0.03-0.486,0.325-1.228,0.697-1.228c1.854,0,0.426,7.342,2.272,7.342c0.412,0,0.645-0.636,0.726-1.223l-0.351-0.013
			c-0.454,0-0.818-0.921-1.069-2.453c-0.261-1.603-0.552-2.587-0.552-2.587"/>
	</g>
	<g>
		<path fill="none" stroke="#000000" stroke-width="0.287" stroke-miterlimit="3.864" d="M-1.295,217.773
			c0,0-0.281-0.978-0.547-2.586c-0.25-1.544-0.612-2.46-1.069-2.46l-0.352,0.006c0.03-0.486,0.325-1.228,0.697-1.228
			c1.854,0,0.426,7.342,2.272,7.342c0.412,0,0.645-0.636,0.726-1.223l-0.351-0.013c-0.454,0-0.818-0.921-1.069-2.453
			c-0.261-1.603-0.552-2.587-0.552-2.587L-1.295,217.773z"/>
	</g>
	<g>
		<path fill="#FFFFFF" d="M-2.547,211.498h0.436c1.302,0,0.531,7.352,1.838,7.352h-0.43C-2.006,218.85-1.24,211.498-2.547,211.498"
			/>
	</g>
	<g>
		<path fill="none" stroke="#000000" stroke-width="0.287" stroke-miterlimit="3.864" d="M-2.547,211.498h0.436
			c1.302,0,0.531,7.352,1.838,7.352h-0.43C-2.006,218.85-1.24,211.498-2.547,211.498z"/>
	</g>
	<g>
		<path fill="#FFFFFF" d="M-5.128,217.432c0,0-0.296-0.764-0.575-2.038c-0.259-1.214-0.641-1.937-1.119-1.937h-0.374
			c0.037-0.379,0.341-0.97,0.734-0.97c1.94,0,0.448,5.787,2.387,5.787c0.426,0,0.676-0.501,0.755-0.959l-0.364-0.004
			c-0.478,0-0.854-0.729-1.121-1.94c-0.27-1.264-0.571-2.045-0.571-2.045"/>
	</g>
	<g>
		<path fill="none" stroke="#000000" stroke-width="0.287" stroke-miterlimit="3.864" d="M-5.128,217.432
			c0,0-0.296-0.764-0.575-2.038c-0.259-1.214-0.641-1.937-1.119-1.937h-0.374c0.037-0.379,0.341-0.97,0.734-0.97
			c1.94,0,0.448,5.787,2.387,5.787c0.426,0,0.676-0.501,0.755-0.959l-0.364-0.004c-0.478,0-0.854-0.729-1.121-1.94
			c-0.27-1.264-0.571-2.045-0.571-2.045L-5.128,217.432z"/>
	</g>
	<g>
		<path fill="#FFFFFF" d="M-6.438,212.483h0.455c1.365,0,0.564,5.796,1.929,5.796h-0.452
			C-5.874,218.279-5.066,212.483-6.438,212.483"/>
	</g>
	<g>
		<path fill="none" stroke="#000000" stroke-width="0.287" stroke-miterlimit="3.864" d="M-6.438,212.483h0.455
			c1.365,0,0.564,5.796,1.929,5.796h-0.452C-5.874,218.279-5.066,212.483-6.438,212.483z"/>
	</g>
	<g>
		
			<line fill="none" stroke="#000000" stroke-width="0.287" stroke-miterlimit="3.864" x1="176.271" y1="263.113" x2="57.588" y2="263.113"/>
	</g>
	<g>
		<path fill="#FFFFFF" d="M323.657,212.438c-2.119,0-5.883-4.286-5.883-4.286l-0.658,0.004v13.728l0.681,0.015
			c0,0,3.546-4.294,5.625-4.294h19.594c3.012,0.094,12.71-2.591,12.71-2.591s-9.691-2.553-12.71-2.553"/>
	</g>
	<g>
		<path fill="none" stroke="#000000" stroke-width="0.287" stroke-miterlimit="3.864" d="M323.657,212.438
			c-2.119,0-5.883-4.286-5.883-4.286l-0.658,0.004v13.728l0.681,0.015c0,0,3.546-4.294,5.625-4.294h19.594
			c3.012,0.094,12.71-2.591,12.71-2.591s-9.691-2.553-12.71-2.553L323.657,212.438z"/>
	</g>
	<g>
		
			<line fill="none" stroke="#000000" stroke-width="0.287" stroke-miterlimit="3.864" x1="317.774" y1="208.148" x2="317.799" y2="221.896"/>
	</g>
	<g>
		
			<line fill="none" stroke="#000000" stroke-width="0.287" stroke-miterlimit="3.864" x1="323.155" y1="212.989" x2="323.155" y2="217.069"/>
	</g>
	<g>
		<path fill="#FFFFFF" d="M349.998,217.409c-0.343,0-0.52-0.264-0.632-0.793l0.537-0.124c0.396,0,0.896-0.53,0.896-1.188
			l0.376,0.011c0-0.68,0.507-1.203,0.902-1.203l0.504,0.004c-0.109-0.526-0.28-0.913-0.602-0.913
			C350.36,213.198,351.606,217.409,349.998,217.409"/>
	</g>
	<g>
		<path fill="none" stroke="#000000" stroke-width="0.287" stroke-miterlimit="3.864" d="M349.998,217.409
			c-0.343,0-0.52-0.264-0.632-0.793l0.537-0.124c0.396,0,0.896-0.53,0.896-1.188l0.376,0.011c0-0.68,0.507-1.203,0.902-1.203
			l0.504,0.004c-0.109-0.526-0.28-0.913-0.602-0.913C350.36,213.198,351.606,217.409,349.998,217.409z"/>
	</g>
	<g>
		<path fill="#FFFFFF" d="M351.974,213.194h-0.37c-1.138,0-0.471,4.215-1.605,4.215h0.374
			C351.502,217.409,350.838,213.194,351.974,213.194"/>
	</g>
	<g>
		<path fill="none" stroke="#000000" stroke-width="0.287" stroke-miterlimit="3.864" d="M351.974,213.194h-0.37
			c-1.138,0-0.471,4.215-1.605,4.215h0.374C351.502,217.409,350.838,213.194,351.974,213.194z"/>
	</g>
	<g>
		<path fill="#FFFFFF" d="M325.362,217.806c0,0,0.289-1.041,0.557-2.748c0.248-1.638,0.612-2.613,1.071-2.613l0.361,0.004
			c-0.034-0.512-0.327-1.302-0.703-1.302c-1.865,0-0.429,7.799-2.286,7.799c-0.414,0-0.646-0.67-0.726-1.29l0.352-0.011
			c0.458,0,0.825-0.975,1.081-2.608c0.263-1.712,0.549-2.754,0.549-2.754"/>
	</g>
	<g>
		<path fill="none" stroke="#000000" stroke-width="0.287" stroke-miterlimit="3.864" d="M325.362,217.806
			c0,0,0.289-1.041,0.557-2.748c0.248-1.638,0.612-2.613,1.071-2.613l0.361,0.004c-0.034-0.512-0.327-1.302-0.703-1.302
			c-1.865,0-0.429,7.799-2.286,7.799c-0.414,0-0.646-0.67-0.726-1.29l0.352-0.011c0.458,0,0.825-0.975,1.081-2.608
			c0.263-1.712,0.549-2.754,0.549-2.754L325.362,217.806z"/>
	</g>
	<g>
		<path fill="#FFFFFF" d="M326.62,211.136h-0.435c-1.313,0-0.536,7.81-1.846,7.81h0.434
			C326.08,218.943,325.31,211.136,326.62,211.136"/>
	</g>
	<g>
		<path fill="none" stroke="#000000" stroke-width="0.287" stroke-miterlimit="3.864" d="M326.62,211.136h-0.435
			c-1.313,0-0.536,7.81-1.846,7.81h0.434C326.08,218.943,325.31,211.136,326.62,211.136z"/>
	</g>
	<g>
		<path fill="#FFFFFF" d="M329.043,217.806c0,0,0.282-1.041,0.553-2.748c0.248-1.638,0.609-2.613,1.075-2.613l0.363,0.004
			c-0.039-0.512-0.34-1.302-0.707-1.302c-1.865,0-0.438,7.799-2.288,7.799c-0.413,0-0.654-0.67-0.726-1.29l0.35-0.011
			c0.459,0,0.824-0.975,1.075-2.608c0.268-1.712,0.557-2.754,0.557-2.754"/>
	</g>
	<g>
		<path fill="none" stroke="#000000" stroke-width="0.287" stroke-miterlimit="3.864" d="M329.043,217.806
			c0,0,0.282-1.041,0.553-2.748c0.248-1.638,0.609-2.613,1.075-2.613l0.363,0.004c-0.039-0.512-0.34-1.302-0.707-1.302
			c-1.865,0-0.438,7.799-2.288,7.799c-0.413,0-0.654-0.67-0.726-1.29l0.35-0.011c0.459,0,0.824-0.975,1.075-2.608
			c0.268-1.712,0.557-2.754,0.557-2.754L329.043,217.806z"/>
	</g>
	<g>
		<path fill="#FFFFFF" d="M330.301,211.136h-0.434c-1.314,0-0.542,7.81-1.847,7.81h0.429
			C329.762,218.943,328.99,211.136,330.301,211.136"/>
	</g>
	<g>
		<path fill="none" stroke="#000000" stroke-width="0.287" stroke-miterlimit="3.864" d="M330.301,211.136h-0.434
			c-1.314,0-0.542,7.81-1.847,7.81h0.429C329.762,218.943,328.99,211.136,330.301,211.136z"/>
	</g>
	<g>
		<path fill="#FFFFFF" d="M332.723,217.806c0,0,0.283-1.041,0.553-2.748c0.252-1.638,0.614-2.613,1.075-2.613l0.359,0.004
			c-0.034-0.512-0.327-1.302-0.701-1.302c-1.871,0-0.431,7.799-2.288,7.799c-0.41,0-0.647-0.67-0.726-1.29l0.356-0.011
			c0.451,0,0.816-0.975,1.072-2.608c0.263-1.712,0.553-2.754,0.553-2.754"/>
	</g>
	<g>
		<path fill="none" stroke="#000000" stroke-width="0.287" stroke-miterlimit="3.864" d="M332.723,217.806
			c0,0,0.283-1.041,0.553-2.748c0.252-1.638,0.614-2.613,1.075-2.613l0.359,0.004c-0.034-0.512-0.327-1.302-0.701-1.302
			c-1.871,0-0.431,7.799-2.288,7.799c-0.41,0-0.647-0.67-0.726-1.29l0.356-0.011c0.451,0,0.816-0.975,1.072-2.608
			c0.263-1.712,0.553-2.754,0.553-2.754L332.723,217.806z"/>
	</g>
	<g>
		<path fill="#FFFFFF" d="M333.983,211.136h-0.438c-1.319,0-0.54,7.81-1.854,7.81h0.438
			C333.444,218.943,332.664,211.136,333.983,211.136"/>
	</g>
	<g>
		<path fill="none" stroke="#000000" stroke-width="0.287" stroke-miterlimit="3.864" d="M333.983,211.136h-0.438
			c-1.319,0-0.54,7.81-1.854,7.81h0.438C333.444,218.943,332.664,211.136,333.983,211.136z"/>
	</g>
	<g>
		<path fill="#FFFFFF" d="M336.407,217.806c0,0,0.284-1.041,0.553-2.748c0.252-1.638,0.611-2.613,1.075-2.613l0.355,0.004
			c-0.032-0.512-0.327-1.302-0.701-1.302c-1.863,0-0.431,7.799-2.288,7.799c-0.415,0-0.652-0.67-0.726-1.29l0.35-0.011
			c0.459,0,0.825-0.975,1.077-2.608c0.266-1.712,0.557-2.754,0.557-2.754"/>
	</g>
	<g>
		<path fill="none" stroke="#000000" stroke-width="0.287" stroke-miterlimit="3.864" d="M336.407,217.806
			c0,0,0.284-1.041,0.553-2.748c0.252-1.638,0.611-2.613,1.075-2.613l0.355,0.004c-0.032-0.512-0.327-1.302-0.701-1.302
			c-1.863,0-0.431,7.799-2.288,7.799c-0.415,0-0.652-0.67-0.726-1.29l0.35-0.011c0.459,0,0.825-0.975,1.077-2.608
			c0.266-1.712,0.557-2.754,0.557-2.754L336.407,217.806z"/>
	</g>
	<g>
		<path fill="#FFFFFF" d="M337.661,211.136h-0.435c-1.313,0-0.535,7.81-1.846,7.81h0.435
			C337.122,218.943,336.349,211.136,337.661,211.136"/>
	</g>
	<g>
		<path fill="none" stroke="#000000" stroke-width="0.287" stroke-miterlimit="3.864" d="M337.661,211.136h-0.435
			c-1.313,0-0.535,7.81-1.846,7.81h0.435C337.122,218.943,336.349,211.136,337.661,211.136z"/>
	</g>
	<g>
		<path fill="#FFFFFF" d="M340.083,217.806c0,0,0.283-1.041,0.556-2.748c0.249-1.638,0.607-2.613,1.07-2.613l0.358,0.004
			c-0.031-0.512-0.326-1.302-0.695-1.302c-1.872,0-0.436,7.799-2.286,7.799c-0.411,0-0.652-0.67-0.731-1.29l0.352-0.011
			c0.467,0,0.829-0.975,1.081-2.608c0.266-1.712,0.553-2.754,0.553-2.754"/>
	</g>
	<g>
		<path fill="none" stroke="#000000" stroke-width="0.287" stroke-miterlimit="3.864" d="M340.083,217.806
			c0,0,0.283-1.041,0.556-2.748c0.249-1.638,0.607-2.613,1.07-2.613l0.358,0.004c-0.031-0.512-0.326-1.302-0.695-1.302
			c-1.872,0-0.436,7.799-2.286,7.799c-0.411,0-0.652-0.67-0.731-1.29l0.352-0.011c0.467,0,0.829-0.975,1.081-2.608
			c0.266-1.712,0.553-2.754,0.553-2.754L340.083,217.806z"/>
	</g>
	<g>
		<path fill="#FFFFFF" d="M341.346,211.136h-0.436c-1.316,0-0.538,7.81-1.851,7.81h0.433
			C340.801,218.943,340.034,211.136,341.346,211.136"/>
	</g>
	<g>
		<path fill="none" stroke="#000000" stroke-width="0.287" stroke-miterlimit="3.864" d="M341.346,211.136h-0.436
			c-1.316,0-0.538,7.81-1.851,7.81h0.433C340.801,218.943,340.034,211.136,341.346,211.136z"/>
	</g>
	<g>
		<path fill="#FFFFFF" d="M343.756,217.773c0,0,0.282-0.978,0.553-2.586c0.244-1.544,0.609-2.46,1.064-2.46l0.357,0.006
			c-0.034-0.486-0.327-1.228-0.696-1.228c-1.85,0-0.429,7.342-2.274,7.342c-0.41,0-0.643-0.636-0.726-1.223l0.35-0.013
			c0.459,0,0.823-0.921,1.071-2.453c0.264-1.603,0.549-2.587,0.549-2.587"/>
	</g>
	<g>
		<path fill="none" stroke="#000000" stroke-width="0.287" stroke-miterlimit="3.864" d="M343.756,217.773
			c0,0,0.282-0.978,0.553-2.586c0.244-1.544,0.609-2.46,1.064-2.46l0.357,0.006c-0.034-0.486-0.327-1.228-0.696-1.228
			c-1.85,0-0.429,7.342-2.274,7.342c-0.41,0-0.643-0.636-0.726-1.223l0.35-0.013c0.459,0,0.823-0.921,1.071-2.453
			c0.264-1.603,0.549-2.587,0.549-2.587L343.756,217.773z"/>
	</g>
	<g>
		<path fill="#FFFFFF" d="M345.005,211.498h-0.429c-1.313,0-0.534,7.352-1.839,7.352h0.429
			C344.471,218.85,343.701,211.498,345.005,211.498"/>
	</g>
	<g>
		<path fill="none" stroke="#000000" stroke-width="0.287" stroke-miterlimit="3.864" d="M345.005,211.498h-0.429
			c-1.313,0-0.534,7.352-1.839,7.352h0.429C344.471,218.85,343.701,211.498,345.005,211.498z"/>
	</g>
	<g>
		<path fill="#FFFFFF" d="M347.588,217.432c0,0,0.301-0.764,0.575-2.038c0.265-1.214,0.643-1.937,1.124-1.937h0.364
			c-0.029-0.379-0.338-0.97-0.732-0.97c-1.937,0-0.444,5.787-2.384,5.787c-0.429,0-0.681-0.501-0.756-0.959l0.36-0.004
			c0.474,0,0.857-0.729,1.121-1.94c0.274-1.264,0.579-2.045,0.579-2.045"/>
	</g>
	<g>
		<path fill="none" stroke="#000000" stroke-width="0.287" stroke-miterlimit="3.864" d="M347.588,217.432
			c0,0,0.301-0.764,0.575-2.038c0.265-1.214,0.643-1.937,1.124-1.937h0.364c-0.029-0.379-0.338-0.97-0.732-0.97
			c-1.937,0-0.444,5.787-2.384,5.787c-0.429,0-0.681-0.501-0.756-0.959l0.36-0.004c0.474,0,0.857-0.729,1.121-1.94
			c0.274-1.264,0.579-2.045,0.579-2.045L347.588,217.432z"/>
	</g>
	<g>
		<path fill="#FFFFFF" d="M348.896,212.483h-0.445c-1.376,0-0.567,5.796-1.937,5.796h0.457
			C348.336,218.279,347.527,212.483,348.896,212.483"/>
	</g>
	<g>
		<path fill="none" stroke="#000000" stroke-width="0.287" stroke-miterlimit="3.864" d="M348.896,212.483h-0.445
			c-1.376,0-0.567,5.796-1.937,5.796h0.457C348.336,218.279,347.527,212.483,348.896,212.483z"/>
	</g>
	<g>
		<rect x="15.805" y="305.632" fill="#CCCCCC" width="307.517" height="43.424"/>
	</g>
	<g>
		
			<rect x="15.805" y="305.632" fill="none" stroke="#000000" stroke-width="0.575" stroke-miterlimit="3.864" stroke-dasharray="1.0145,1.0145" width="307.517" height="43.424"/>
	</g>
	<g>
		<polyline points="177.777,318.895 182.39,302.948 187.068,318.895 		"/>
	</g>
	<g>
		<polyline fill="none" stroke="#000000" stroke-width="0.287" stroke-miterlimit="3.864" points="182.682,307.126 182.682,403.291 
			106.046,403.165 		"/>
	</g>
	<g>
		<g>
			<text transform="matrix(1 0 0 1 104.5132 80.5449)" font-family="'Arial'" font-size="24">1144.0</text>
		</g>
	</g>
	<g>
		<g>
			<text transform="matrix(1 0 0 1 200.9375 51.2441)" font-family="'Arial'" font-size="12">+ 0.0</text>
		</g>
	</g>
	<g>
		<g>
			<text transform="matrix(1 0 0 1 202.8145 65.3848)" font-family="'Arial'" font-size="12">– </text>
			<text transform="matrix(1 0 0 1 217.7871 65.3848)" font-family="'Arial'" font-size="12">1</text>
			<text transform="matrix(1 0 0 1 223.7617 65.3848)" font-family="'Arial'" font-size="12">.5</text>
		</g>
	</g>
	<g>
		<path fill="none" stroke="#000000" stroke-width="0.575" stroke-miterlimit="3.864" d="M62.151,263.3H31.577V-71.646h30.574
			c-0.031,29.779-0.02,254.772-0.009,301.875H48.778l-0.098,9.081h13.465L62.151,263.3z"/>
	</g>
</g>
<rect x="72.515" y="369.609" fill="none" width="174.704" height="36.396"/>
<text transform="matrix(1.0001 0 0 1 116.9292 399.7148)" font-family="'Arial'" font-size="24">28.5</text>
</svg>
